G04 #@! TF.GenerationSoftware,KiCad,Pcbnew,5.1.5+dfsg1-2build2*
G04 #@! TF.CreationDate,2021-01-22T23:18:45+11:00*
G04 #@! TF.ProjectId,mPCIe-LEA-4L,6d504349-652d-44c4-9541-2d344c2e6b69,1*
G04 #@! TF.SameCoordinates,Original*
G04 #@! TF.FileFunction,Copper,L3,Inr*
G04 #@! TF.FilePolarity,Positive*
%FSLAX46Y46*%
G04 Gerber Fmt 4.6, Leading zero omitted, Abs format (unit mm)*
G04 Created by KiCad (PCBNEW 5.1.5+dfsg1-2build2) date 2021-01-22 23:18:45*
%MOMM*%
%LPD*%
G04 APERTURE LIST*
G04 #@! TA.AperFunction,EtchedComponent*
%ADD10C,0.050000*%
G04 #@! TD*
G04 #@! TA.AperFunction,ViaPad*
%ADD11C,0.350000*%
G04 #@! TD*
G04 #@! TA.AperFunction,ViaPad*
%ADD12C,0.600000*%
G04 #@! TD*
G04 #@! TA.AperFunction,ViaPad*
%ADD13C,0.800000*%
G04 #@! TD*
G04 #@! TA.AperFunction,ViaPad*
%ADD14C,0.700000*%
G04 #@! TD*
G04 #@! TA.AperFunction,ViaPad*
%ADD15C,0.500000*%
G04 #@! TD*
G04 #@! TA.AperFunction,ViaPad*
%ADD16C,0.450000*%
G04 #@! TD*
G04 #@! TA.AperFunction,Conductor*
%ADD17C,0.127000*%
G04 #@! TD*
G04 APERTURE END LIST*
D10*
G04 #@! TO.C,PC1*
X136900000Y-125000000D02*
X136900000Y-121750000D01*
X127200000Y-125000000D02*
X127200000Y-122500000D01*
X125000000Y-121700000D02*
X126400000Y-121700000D01*
X152800000Y-125000000D02*
X152800000Y-122500000D01*
X153600000Y-121700000D02*
X155000000Y-121700000D01*
X135400000Y-125000000D02*
X127200000Y-125000000D01*
X125000000Y-74050000D02*
X155000000Y-74050000D01*
X155000000Y-121700000D02*
X155000000Y-74050000D01*
X125000000Y-121700000D02*
X125000000Y-74050000D01*
X136900000Y-125000000D02*
X152800000Y-125000000D01*
X135400000Y-125000000D02*
X135400000Y-121750000D01*
X153600000Y-121700000D02*
G75*
G03X152800000Y-122500000I0J-800000D01*
G01*
X126400000Y-121700000D02*
G75*
G02X127200000Y-122500000I0J-800000D01*
G01*
X135400000Y-121750000D02*
G75*
G02X136900000Y-121750000I750000J0D01*
G01*
G04 #@! TD*
G04 #@! TA.AperFunction,ViaPad*
D11*
G04 #@! TO.N,GND*
G04 #@! TO.C,PC1*
G36*
X155004877Y-74025480D02*
G01*
X155009567Y-74026903D01*
X155013889Y-74029213D01*
X155017678Y-74032322D01*
X155020787Y-74036111D01*
X155023097Y-74040433D01*
X155024520Y-74045123D01*
X155025000Y-74050000D01*
X155025000Y-79850000D01*
X155024520Y-79854877D01*
X155023097Y-79859567D01*
X155020787Y-79863889D01*
X155017678Y-79867678D01*
X155013889Y-79870787D01*
X155009567Y-79873097D01*
X155004877Y-79874520D01*
X155000000Y-79875000D01*
X149200000Y-79875000D01*
X149195123Y-79874520D01*
X149190433Y-79873097D01*
X149186111Y-79870787D01*
X149182322Y-79867678D01*
X149179213Y-79863889D01*
X149176903Y-79859567D01*
X149175480Y-79854877D01*
X149175000Y-79850000D01*
X149175000Y-74050000D01*
X149175480Y-74045123D01*
X149176903Y-74040433D01*
X149179213Y-74036111D01*
X149182322Y-74032322D01*
X149186111Y-74029213D01*
X149190433Y-74026903D01*
X149195123Y-74025480D01*
X149200000Y-74025000D01*
X155000000Y-74025000D01*
X155004877Y-74025480D01*
G37*
G04 #@! TD.AperFunction*
G04 #@! TA.AperFunction,ViaPad*
G36*
X130804877Y-74025480D02*
G01*
X130809567Y-74026903D01*
X130813889Y-74029213D01*
X130817678Y-74032322D01*
X130820787Y-74036111D01*
X130823097Y-74040433D01*
X130824520Y-74045123D01*
X130825000Y-74050000D01*
X130825000Y-79850000D01*
X130824520Y-79854877D01*
X130823097Y-79859567D01*
X130820787Y-79863889D01*
X130817678Y-79867678D01*
X130813889Y-79870787D01*
X130809567Y-79873097D01*
X130804877Y-79874520D01*
X130800000Y-79875000D01*
X125000000Y-79875000D01*
X124995123Y-79874520D01*
X124990433Y-79873097D01*
X124986111Y-79870787D01*
X124982322Y-79867678D01*
X124979213Y-79863889D01*
X124976903Y-79859567D01*
X124975480Y-79854877D01*
X124975000Y-79850000D01*
X124975000Y-74050000D01*
X124975480Y-74045123D01*
X124976903Y-74040433D01*
X124979213Y-74036111D01*
X124982322Y-74032322D01*
X124986111Y-74029213D01*
X124990433Y-74026903D01*
X124995123Y-74025480D01*
X125000000Y-74025000D01*
X130800000Y-74025000D01*
X130804877Y-74025480D01*
G37*
G04 #@! TD.AperFunction*
G04 #@! TD*
D12*
G04 #@! TO.N,GND*
X131300000Y-103950000D03*
X145500000Y-80200000D03*
D13*
X132200000Y-96650000D03*
X128600000Y-96650000D03*
X135800000Y-84650000D03*
D12*
X145500000Y-79350000D03*
X147700000Y-79350000D03*
D13*
X132190000Y-84650000D03*
X135800000Y-96650000D03*
X135800000Y-92650000D03*
X135800000Y-88650000D03*
X128600000Y-84650000D03*
X132200000Y-92650000D03*
X132200000Y-88650000D03*
D12*
X147700000Y-80200000D03*
D13*
X128600000Y-88650000D03*
X128600000Y-92650000D03*
X150200000Y-88650000D03*
X143000000Y-88650000D03*
X126000000Y-118900000D03*
X146600000Y-88650000D03*
X146600000Y-96650000D03*
X139400000Y-96650000D03*
X150200000Y-92650000D03*
X150200000Y-96650000D03*
X146600000Y-92650000D03*
X143000000Y-92650000D03*
X146610000Y-84650000D03*
X154000000Y-118900000D03*
X143000000Y-84650000D03*
X150200000Y-84650000D03*
D12*
X147900000Y-78550000D03*
X145300000Y-78550000D03*
X147700000Y-81000000D03*
X145500000Y-81000000D03*
D13*
X143000000Y-96650000D03*
X139450000Y-88650000D03*
X139450000Y-92650000D03*
X139450000Y-84650000D03*
X154000000Y-81000000D03*
X126000000Y-81000000D03*
D14*
X137525000Y-105425000D03*
D12*
X142175000Y-101250000D03*
X140150000Y-101250000D03*
D14*
G04 #@! TO.N,+3.3V*
X147000000Y-121150000D03*
D12*
X151300000Y-107125000D03*
D14*
X140600000Y-121150000D03*
X128600000Y-121150000D03*
X151800000Y-121150000D03*
D15*
X135000000Y-76050000D03*
X139050000Y-76050000D03*
X143000000Y-76050000D03*
D14*
X132600000Y-110150000D03*
D12*
X135100000Y-83900000D03*
D14*
X136200000Y-97900000D03*
X135950000Y-105425000D03*
D16*
G04 #@! TO.N,/~LED_WLAN*
X153050000Y-85675000D03*
X143050000Y-77400000D03*
G04 #@! TO.N,/~LED_WWAN*
X127250000Y-85050000D03*
X137250000Y-78300000D03*
G04 #@! TO.N,/USB_D+*
X138200000Y-79798000D03*
G04 #@! TO.N,/USB_D-*
X138200000Y-80402000D03*
G04 #@! TO.N,/~RESET*
X139800000Y-105000000D03*
G04 #@! TD*
D17*
G04 #@! TO.N,+3.3V*
G36*
X142899256Y-74281220D02*
G01*
X143044692Y-74332293D01*
X143175058Y-74414544D01*
X143283768Y-74523822D01*
X143365342Y-74654614D01*
X143415656Y-74800315D01*
X143432561Y-74957147D01*
X143420845Y-77209547D01*
X143418211Y-77203187D01*
X143372740Y-77135134D01*
X143314866Y-77077260D01*
X143246813Y-77031789D01*
X143171197Y-77000468D01*
X143090923Y-76984500D01*
X143009077Y-76984500D01*
X142928803Y-77000468D01*
X142853187Y-77031789D01*
X142785134Y-77077260D01*
X142727260Y-77135134D01*
X142681789Y-77203187D01*
X142650468Y-77278803D01*
X142634500Y-77359077D01*
X142634500Y-77440923D01*
X142650468Y-77521197D01*
X142681789Y-77596813D01*
X142727260Y-77664866D01*
X142785134Y-77722740D01*
X142853187Y-77768211D01*
X142928803Y-77799532D01*
X143009077Y-77815500D01*
X143090923Y-77815500D01*
X143171197Y-77799532D01*
X143246813Y-77768211D01*
X143314866Y-77722740D01*
X143372740Y-77664866D01*
X143418211Y-77596813D01*
X143418839Y-77595297D01*
X143415408Y-78254875D01*
X143397067Y-78410698D01*
X143345784Y-78555177D01*
X143263699Y-78684659D01*
X143154909Y-78792684D01*
X143024847Y-78873856D01*
X142880010Y-78924120D01*
X142724073Y-78941359D01*
X137477382Y-78931643D01*
X137470258Y-78932031D01*
X137303018Y-78950597D01*
X137289123Y-78953747D01*
X137130231Y-79009131D01*
X137117390Y-79015300D01*
X136974844Y-79104714D01*
X136963700Y-79113590D01*
X136844676Y-79232532D01*
X136835792Y-79243670D01*
X136746280Y-79386155D01*
X136740103Y-79398992D01*
X136684610Y-79557846D01*
X136681450Y-79571738D01*
X136662769Y-79738965D01*
X136662376Y-79746089D01*
X136685630Y-99715409D01*
X136686036Y-99722501D01*
X136704944Y-99888974D01*
X136708109Y-99902802D01*
X136763501Y-100060924D01*
X136769657Y-100073704D01*
X136858768Y-100215584D01*
X136867607Y-100226678D01*
X136985992Y-100345236D01*
X136997074Y-100354092D01*
X137138824Y-100443411D01*
X137151595Y-100449586D01*
X137309636Y-100505208D01*
X137323459Y-100508393D01*
X137489905Y-100527543D01*
X137496996Y-100527959D01*
X150297866Y-100561528D01*
X150304989Y-100561146D01*
X150472203Y-100542718D01*
X150486096Y-100539580D01*
X150644996Y-100484346D01*
X150657841Y-100478190D01*
X150800432Y-100388928D01*
X150811580Y-100380064D01*
X150930690Y-100261267D01*
X150939583Y-100250141D01*
X151029218Y-100107784D01*
X151035408Y-100094956D01*
X151091058Y-99936201D01*
X151094232Y-99922317D01*
X151113099Y-99755153D01*
X151113500Y-99748031D01*
X151113500Y-85634077D01*
X152634500Y-85634077D01*
X152634500Y-85715923D01*
X152650468Y-85796197D01*
X152681789Y-85871813D01*
X152727260Y-85939866D01*
X152785134Y-85997740D01*
X152853187Y-86043211D01*
X152928803Y-86074532D01*
X153009077Y-86090500D01*
X153090923Y-86090500D01*
X153171197Y-86074532D01*
X153246813Y-86043211D01*
X153314866Y-85997740D01*
X153372740Y-85939866D01*
X153418211Y-85871813D01*
X153449532Y-85796197D01*
X153465500Y-85715923D01*
X153465500Y-85634077D01*
X153449532Y-85553803D01*
X153418211Y-85478187D01*
X153372740Y-85410134D01*
X153314866Y-85352260D01*
X153246813Y-85306789D01*
X153171197Y-85275468D01*
X153090923Y-85259500D01*
X153009077Y-85259500D01*
X152928803Y-85275468D01*
X152853187Y-85306789D01*
X152785134Y-85352260D01*
X152727260Y-85410134D01*
X152681789Y-85478187D01*
X152650468Y-85553803D01*
X152634500Y-85634077D01*
X151113500Y-85634077D01*
X151113500Y-82103569D01*
X151131104Y-81947329D01*
X151181848Y-81802311D01*
X151263587Y-81672224D01*
X151372224Y-81563587D01*
X151502311Y-81481848D01*
X151647329Y-81431104D01*
X151803569Y-81413500D01*
X153578407Y-81413500D01*
X153623578Y-81458671D01*
X153720293Y-81523294D01*
X153827758Y-81567807D01*
X153941841Y-81590500D01*
X154058159Y-81590500D01*
X154172242Y-81567807D01*
X154279707Y-81523294D01*
X154376422Y-81458671D01*
X154403647Y-81431446D01*
X154547689Y-81481848D01*
X154677776Y-81563587D01*
X154784501Y-81670312D01*
X154784500Y-121329689D01*
X154677776Y-121436413D01*
X154601246Y-121484500D01*
X153589421Y-121484500D01*
X153579870Y-121485441D01*
X153574882Y-121485406D01*
X153571888Y-121485700D01*
X153416611Y-121502021D01*
X153397476Y-121505949D01*
X153378294Y-121509608D01*
X153375413Y-121510477D01*
X153226264Y-121556646D01*
X153208249Y-121564219D01*
X153190147Y-121571532D01*
X153187495Y-121572942D01*
X153187491Y-121572944D01*
X153187490Y-121572945D01*
X153162421Y-121586500D01*
X137329997Y-121586500D01*
X137213535Y-121568054D01*
X137112980Y-121516819D01*
X137072279Y-121476118D01*
X137044765Y-121389383D01*
X137037059Y-121371404D01*
X137029627Y-121353373D01*
X137028196Y-121350726D01*
X136966402Y-121238322D01*
X136941917Y-121083734D01*
X136938774Y-121071690D01*
X136935778Y-121064840D01*
X136875411Y-120946363D01*
X136868700Y-120935879D01*
X136863733Y-120930290D01*
X136769710Y-120836267D01*
X136760088Y-120828370D01*
X136753637Y-120824589D01*
X136635160Y-120764222D01*
X136623568Y-120759685D01*
X136616266Y-120758083D01*
X136484934Y-120737282D01*
X136475000Y-120736500D01*
X135825000Y-120736500D01*
X135815066Y-120737282D01*
X135683734Y-120758083D01*
X135671690Y-120761226D01*
X135664840Y-120764222D01*
X135546363Y-120824589D01*
X135535879Y-120831300D01*
X135530290Y-120836267D01*
X135436267Y-120930290D01*
X135428370Y-120939912D01*
X135424589Y-120946363D01*
X135364222Y-121064840D01*
X135359685Y-121076432D01*
X135358083Y-121083735D01*
X135337283Y-121215067D01*
X135334015Y-121235700D01*
X135266315Y-121363025D01*
X135258871Y-121381085D01*
X135251177Y-121399037D01*
X135250288Y-121401908D01*
X135250288Y-121401910D01*
X135250287Y-121401912D01*
X135227953Y-121475887D01*
X135187021Y-121516819D01*
X135086466Y-121568054D01*
X134970004Y-121586500D01*
X126836893Y-121586500D01*
X126806027Y-121570088D01*
X126787979Y-121562649D01*
X126770017Y-121554950D01*
X126767152Y-121554064D01*
X126767142Y-121554060D01*
X126767132Y-121554058D01*
X126617673Y-121508934D01*
X126598539Y-121505145D01*
X126579409Y-121501079D01*
X126576425Y-121500766D01*
X126576415Y-121500764D01*
X126576406Y-121500764D01*
X126421029Y-121485529D01*
X126421026Y-121485529D01*
X126410579Y-121484500D01*
X125398754Y-121484500D01*
X125322224Y-121436413D01*
X125215500Y-121329689D01*
X125215500Y-118841841D01*
X125409500Y-118841841D01*
X125409500Y-118958159D01*
X125432193Y-119072242D01*
X125476706Y-119179707D01*
X125541329Y-119276422D01*
X125623578Y-119358671D01*
X125720293Y-119423294D01*
X125827758Y-119467807D01*
X125941841Y-119490500D01*
X126058159Y-119490500D01*
X126172242Y-119467807D01*
X126279707Y-119423294D01*
X126376422Y-119358671D01*
X126458671Y-119276422D01*
X126523294Y-119179707D01*
X126567807Y-119072242D01*
X126590500Y-118958159D01*
X126590500Y-118841841D01*
X153409500Y-118841841D01*
X153409500Y-118958159D01*
X153432193Y-119072242D01*
X153476706Y-119179707D01*
X153541329Y-119276422D01*
X153623578Y-119358671D01*
X153720293Y-119423294D01*
X153827758Y-119467807D01*
X153941841Y-119490500D01*
X154058159Y-119490500D01*
X154172242Y-119467807D01*
X154279707Y-119423294D01*
X154376422Y-119358671D01*
X154458671Y-119276422D01*
X154523294Y-119179707D01*
X154567807Y-119072242D01*
X154590500Y-118958159D01*
X154590500Y-118841841D01*
X154567807Y-118727758D01*
X154523294Y-118620293D01*
X154458671Y-118523578D01*
X154376422Y-118441329D01*
X154279707Y-118376706D01*
X154172242Y-118332193D01*
X154058159Y-118309500D01*
X153941841Y-118309500D01*
X153827758Y-118332193D01*
X153720293Y-118376706D01*
X153623578Y-118441329D01*
X153541329Y-118523578D01*
X153476706Y-118620293D01*
X153432193Y-118727758D01*
X153409500Y-118841841D01*
X126590500Y-118841841D01*
X126567807Y-118727758D01*
X126523294Y-118620293D01*
X126458671Y-118523578D01*
X126376422Y-118441329D01*
X126279707Y-118376706D01*
X126172242Y-118332193D01*
X126058159Y-118309500D01*
X125941841Y-118309500D01*
X125827758Y-118332193D01*
X125720293Y-118376706D01*
X125623578Y-118441329D01*
X125541329Y-118523578D01*
X125476706Y-118620293D01*
X125432193Y-118727758D01*
X125409500Y-118841841D01*
X125215500Y-118841841D01*
X125215500Y-105371765D01*
X136984500Y-105371765D01*
X136984500Y-105478235D01*
X137005271Y-105582658D01*
X137046015Y-105681023D01*
X137105166Y-105769549D01*
X137180451Y-105844834D01*
X137268977Y-105903985D01*
X137367342Y-105944729D01*
X137471765Y-105965500D01*
X137578235Y-105965500D01*
X137682658Y-105944729D01*
X137781023Y-105903985D01*
X137869549Y-105844834D01*
X137944834Y-105769549D01*
X138003985Y-105681023D01*
X138044729Y-105582658D01*
X138065500Y-105478235D01*
X138065500Y-105371765D01*
X138044729Y-105267342D01*
X138003985Y-105168977D01*
X137944834Y-105080451D01*
X137869549Y-105005166D01*
X137800572Y-104959077D01*
X139384500Y-104959077D01*
X139384500Y-105040923D01*
X139400468Y-105121197D01*
X139431789Y-105196813D01*
X139477260Y-105264866D01*
X139535134Y-105322740D01*
X139603187Y-105368211D01*
X139678803Y-105399532D01*
X139759077Y-105415500D01*
X139840923Y-105415500D01*
X139921197Y-105399532D01*
X139996813Y-105368211D01*
X140064866Y-105322740D01*
X140122740Y-105264866D01*
X140168211Y-105196813D01*
X140199532Y-105121197D01*
X140215500Y-105040923D01*
X140215500Y-104959077D01*
X140199532Y-104878803D01*
X140168211Y-104803187D01*
X140122740Y-104735134D01*
X140064866Y-104677260D01*
X139996813Y-104631789D01*
X139921197Y-104600468D01*
X139840923Y-104584500D01*
X139759077Y-104584500D01*
X139678803Y-104600468D01*
X139603187Y-104631789D01*
X139535134Y-104677260D01*
X139477260Y-104735134D01*
X139431789Y-104803187D01*
X139400468Y-104878803D01*
X139384500Y-104959077D01*
X137800572Y-104959077D01*
X137781023Y-104946015D01*
X137682658Y-104905271D01*
X137578235Y-104884500D01*
X137471765Y-104884500D01*
X137367342Y-104905271D01*
X137268977Y-104946015D01*
X137180451Y-105005166D01*
X137105166Y-105080451D01*
X137046015Y-105168977D01*
X137005271Y-105267342D01*
X136984500Y-105371765D01*
X125215500Y-105371765D01*
X125215500Y-103901690D01*
X130809500Y-103901690D01*
X130809500Y-103998310D01*
X130828350Y-104093073D01*
X130865325Y-104182339D01*
X130919004Y-104262675D01*
X130987325Y-104330996D01*
X131067661Y-104384675D01*
X131156927Y-104421650D01*
X131251690Y-104440500D01*
X131348310Y-104440500D01*
X131443073Y-104421650D01*
X131532339Y-104384675D01*
X131612675Y-104330996D01*
X131680996Y-104262675D01*
X131734675Y-104182339D01*
X131771650Y-104093073D01*
X131790500Y-103998310D01*
X131790500Y-103901690D01*
X131771650Y-103806927D01*
X131734675Y-103717661D01*
X131680996Y-103637325D01*
X131612675Y-103569004D01*
X131532339Y-103515325D01*
X131443073Y-103478350D01*
X131348310Y-103459500D01*
X131251690Y-103459500D01*
X131156927Y-103478350D01*
X131067661Y-103515325D01*
X130987325Y-103569004D01*
X130919004Y-103637325D01*
X130865325Y-103717661D01*
X130828350Y-103806927D01*
X130809500Y-103901690D01*
X125215500Y-103901690D01*
X125215500Y-101201690D01*
X139659500Y-101201690D01*
X139659500Y-101298310D01*
X139678350Y-101393073D01*
X139715325Y-101482339D01*
X139769004Y-101562675D01*
X139837325Y-101630996D01*
X139917661Y-101684675D01*
X140006927Y-101721650D01*
X140101690Y-101740500D01*
X140198310Y-101740500D01*
X140293073Y-101721650D01*
X140382339Y-101684675D01*
X140462675Y-101630996D01*
X140530996Y-101562675D01*
X140584675Y-101482339D01*
X140621650Y-101393073D01*
X140640500Y-101298310D01*
X140640500Y-101201690D01*
X141684500Y-101201690D01*
X141684500Y-101298310D01*
X141703350Y-101393073D01*
X141740325Y-101482339D01*
X141794004Y-101562675D01*
X141862325Y-101630996D01*
X141942661Y-101684675D01*
X142031927Y-101721650D01*
X142126690Y-101740500D01*
X142223310Y-101740500D01*
X142318073Y-101721650D01*
X142407339Y-101684675D01*
X142487675Y-101630996D01*
X142555996Y-101562675D01*
X142609675Y-101482339D01*
X142646650Y-101393073D01*
X142665500Y-101298310D01*
X142665500Y-101201690D01*
X142646650Y-101106927D01*
X142609675Y-101017661D01*
X142555996Y-100937325D01*
X142487675Y-100869004D01*
X142407339Y-100815325D01*
X142318073Y-100778350D01*
X142223310Y-100759500D01*
X142126690Y-100759500D01*
X142031927Y-100778350D01*
X141942661Y-100815325D01*
X141862325Y-100869004D01*
X141794004Y-100937325D01*
X141740325Y-101017661D01*
X141703350Y-101106927D01*
X141684500Y-101201690D01*
X140640500Y-101201690D01*
X140621650Y-101106927D01*
X140584675Y-101017661D01*
X140530996Y-100937325D01*
X140462675Y-100869004D01*
X140382339Y-100815325D01*
X140293073Y-100778350D01*
X140198310Y-100759500D01*
X140101690Y-100759500D01*
X140006927Y-100778350D01*
X139917661Y-100815325D01*
X139837325Y-100869004D01*
X139769004Y-100937325D01*
X139715325Y-101017661D01*
X139678350Y-101106927D01*
X139659500Y-101201690D01*
X125215500Y-101201690D01*
X125215500Y-96591841D01*
X128009500Y-96591841D01*
X128009500Y-96708159D01*
X128032193Y-96822242D01*
X128076706Y-96929707D01*
X128141329Y-97026422D01*
X128223578Y-97108671D01*
X128320293Y-97173294D01*
X128427758Y-97217807D01*
X128541841Y-97240500D01*
X128658159Y-97240500D01*
X128772242Y-97217807D01*
X128879707Y-97173294D01*
X128976422Y-97108671D01*
X129058671Y-97026422D01*
X129123294Y-96929707D01*
X129167807Y-96822242D01*
X129190500Y-96708159D01*
X129190500Y-96591841D01*
X131609500Y-96591841D01*
X131609500Y-96708159D01*
X131632193Y-96822242D01*
X131676706Y-96929707D01*
X131741329Y-97026422D01*
X131823578Y-97108671D01*
X131920293Y-97173294D01*
X132027758Y-97217807D01*
X132141841Y-97240500D01*
X132258159Y-97240500D01*
X132372242Y-97217807D01*
X132479707Y-97173294D01*
X132576422Y-97108671D01*
X132658671Y-97026422D01*
X132723294Y-96929707D01*
X132767807Y-96822242D01*
X132790500Y-96708159D01*
X132790500Y-96591841D01*
X135209500Y-96591841D01*
X135209500Y-96708159D01*
X135232193Y-96822242D01*
X135276706Y-96929707D01*
X135341329Y-97026422D01*
X135423578Y-97108671D01*
X135520293Y-97173294D01*
X135627758Y-97217807D01*
X135741841Y-97240500D01*
X135858159Y-97240500D01*
X135972242Y-97217807D01*
X136079707Y-97173294D01*
X136176422Y-97108671D01*
X136258671Y-97026422D01*
X136323294Y-96929707D01*
X136367807Y-96822242D01*
X136390500Y-96708159D01*
X136390500Y-96591841D01*
X136367807Y-96477758D01*
X136323294Y-96370293D01*
X136258671Y-96273578D01*
X136176422Y-96191329D01*
X136079707Y-96126706D01*
X135972242Y-96082193D01*
X135858159Y-96059500D01*
X135741841Y-96059500D01*
X135627758Y-96082193D01*
X135520293Y-96126706D01*
X135423578Y-96191329D01*
X135341329Y-96273578D01*
X135276706Y-96370293D01*
X135232193Y-96477758D01*
X135209500Y-96591841D01*
X132790500Y-96591841D01*
X132767807Y-96477758D01*
X132723294Y-96370293D01*
X132658671Y-96273578D01*
X132576422Y-96191329D01*
X132479707Y-96126706D01*
X132372242Y-96082193D01*
X132258159Y-96059500D01*
X132141841Y-96059500D01*
X132027758Y-96082193D01*
X131920293Y-96126706D01*
X131823578Y-96191329D01*
X131741329Y-96273578D01*
X131676706Y-96370293D01*
X131632193Y-96477758D01*
X131609500Y-96591841D01*
X129190500Y-96591841D01*
X129167807Y-96477758D01*
X129123294Y-96370293D01*
X129058671Y-96273578D01*
X128976422Y-96191329D01*
X128879707Y-96126706D01*
X128772242Y-96082193D01*
X128658159Y-96059500D01*
X128541841Y-96059500D01*
X128427758Y-96082193D01*
X128320293Y-96126706D01*
X128223578Y-96191329D01*
X128141329Y-96273578D01*
X128076706Y-96370293D01*
X128032193Y-96477758D01*
X128009500Y-96591841D01*
X125215500Y-96591841D01*
X125215500Y-92591841D01*
X128009500Y-92591841D01*
X128009500Y-92708159D01*
X128032193Y-92822242D01*
X128076706Y-92929707D01*
X128141329Y-93026422D01*
X128223578Y-93108671D01*
X128320293Y-93173294D01*
X128427758Y-93217807D01*
X128541841Y-93240500D01*
X128658159Y-93240500D01*
X128772242Y-93217807D01*
X128879707Y-93173294D01*
X128976422Y-93108671D01*
X129058671Y-93026422D01*
X129123294Y-92929707D01*
X129167807Y-92822242D01*
X129190500Y-92708159D01*
X129190500Y-92591841D01*
X131609500Y-92591841D01*
X131609500Y-92708159D01*
X131632193Y-92822242D01*
X131676706Y-92929707D01*
X131741329Y-93026422D01*
X131823578Y-93108671D01*
X131920293Y-93173294D01*
X132027758Y-93217807D01*
X132141841Y-93240500D01*
X132258159Y-93240500D01*
X132372242Y-93217807D01*
X132479707Y-93173294D01*
X132576422Y-93108671D01*
X132658671Y-93026422D01*
X132723294Y-92929707D01*
X132767807Y-92822242D01*
X132790500Y-92708159D01*
X132790500Y-92591841D01*
X135209500Y-92591841D01*
X135209500Y-92708159D01*
X135232193Y-92822242D01*
X135276706Y-92929707D01*
X135341329Y-93026422D01*
X135423578Y-93108671D01*
X135520293Y-93173294D01*
X135627758Y-93217807D01*
X135741841Y-93240500D01*
X135858159Y-93240500D01*
X135972242Y-93217807D01*
X136079707Y-93173294D01*
X136176422Y-93108671D01*
X136258671Y-93026422D01*
X136323294Y-92929707D01*
X136367807Y-92822242D01*
X136390500Y-92708159D01*
X136390500Y-92591841D01*
X136367807Y-92477758D01*
X136323294Y-92370293D01*
X136258671Y-92273578D01*
X136176422Y-92191329D01*
X136079707Y-92126706D01*
X135972242Y-92082193D01*
X135858159Y-92059500D01*
X135741841Y-92059500D01*
X135627758Y-92082193D01*
X135520293Y-92126706D01*
X135423578Y-92191329D01*
X135341329Y-92273578D01*
X135276706Y-92370293D01*
X135232193Y-92477758D01*
X135209500Y-92591841D01*
X132790500Y-92591841D01*
X132767807Y-92477758D01*
X132723294Y-92370293D01*
X132658671Y-92273578D01*
X132576422Y-92191329D01*
X132479707Y-92126706D01*
X132372242Y-92082193D01*
X132258159Y-92059500D01*
X132141841Y-92059500D01*
X132027758Y-92082193D01*
X131920293Y-92126706D01*
X131823578Y-92191329D01*
X131741329Y-92273578D01*
X131676706Y-92370293D01*
X131632193Y-92477758D01*
X131609500Y-92591841D01*
X129190500Y-92591841D01*
X129167807Y-92477758D01*
X129123294Y-92370293D01*
X129058671Y-92273578D01*
X128976422Y-92191329D01*
X128879707Y-92126706D01*
X128772242Y-92082193D01*
X128658159Y-92059500D01*
X128541841Y-92059500D01*
X128427758Y-92082193D01*
X128320293Y-92126706D01*
X128223578Y-92191329D01*
X128141329Y-92273578D01*
X128076706Y-92370293D01*
X128032193Y-92477758D01*
X128009500Y-92591841D01*
X125215500Y-92591841D01*
X125215500Y-88591841D01*
X128009500Y-88591841D01*
X128009500Y-88708159D01*
X128032193Y-88822242D01*
X128076706Y-88929707D01*
X128141329Y-89026422D01*
X128223578Y-89108671D01*
X128320293Y-89173294D01*
X128427758Y-89217807D01*
X128541841Y-89240500D01*
X128658159Y-89240500D01*
X128772242Y-89217807D01*
X128879707Y-89173294D01*
X128976422Y-89108671D01*
X129058671Y-89026422D01*
X129123294Y-88929707D01*
X129167807Y-88822242D01*
X129190500Y-88708159D01*
X129190500Y-88591841D01*
X131609500Y-88591841D01*
X131609500Y-88708159D01*
X131632193Y-88822242D01*
X131676706Y-88929707D01*
X131741329Y-89026422D01*
X131823578Y-89108671D01*
X131920293Y-89173294D01*
X132027758Y-89217807D01*
X132141841Y-89240500D01*
X132258159Y-89240500D01*
X132372242Y-89217807D01*
X132479707Y-89173294D01*
X132576422Y-89108671D01*
X132658671Y-89026422D01*
X132723294Y-88929707D01*
X132767807Y-88822242D01*
X132790500Y-88708159D01*
X132790500Y-88591841D01*
X135209500Y-88591841D01*
X135209500Y-88708159D01*
X135232193Y-88822242D01*
X135276706Y-88929707D01*
X135341329Y-89026422D01*
X135423578Y-89108671D01*
X135520293Y-89173294D01*
X135627758Y-89217807D01*
X135741841Y-89240500D01*
X135858159Y-89240500D01*
X135972242Y-89217807D01*
X136079707Y-89173294D01*
X136176422Y-89108671D01*
X136258671Y-89026422D01*
X136323294Y-88929707D01*
X136367807Y-88822242D01*
X136390500Y-88708159D01*
X136390500Y-88591841D01*
X136367807Y-88477758D01*
X136323294Y-88370293D01*
X136258671Y-88273578D01*
X136176422Y-88191329D01*
X136079707Y-88126706D01*
X135972242Y-88082193D01*
X135858159Y-88059500D01*
X135741841Y-88059500D01*
X135627758Y-88082193D01*
X135520293Y-88126706D01*
X135423578Y-88191329D01*
X135341329Y-88273578D01*
X135276706Y-88370293D01*
X135232193Y-88477758D01*
X135209500Y-88591841D01*
X132790500Y-88591841D01*
X132767807Y-88477758D01*
X132723294Y-88370293D01*
X132658671Y-88273578D01*
X132576422Y-88191329D01*
X132479707Y-88126706D01*
X132372242Y-88082193D01*
X132258159Y-88059500D01*
X132141841Y-88059500D01*
X132027758Y-88082193D01*
X131920293Y-88126706D01*
X131823578Y-88191329D01*
X131741329Y-88273578D01*
X131676706Y-88370293D01*
X131632193Y-88477758D01*
X131609500Y-88591841D01*
X129190500Y-88591841D01*
X129167807Y-88477758D01*
X129123294Y-88370293D01*
X129058671Y-88273578D01*
X128976422Y-88191329D01*
X128879707Y-88126706D01*
X128772242Y-88082193D01*
X128658159Y-88059500D01*
X128541841Y-88059500D01*
X128427758Y-88082193D01*
X128320293Y-88126706D01*
X128223578Y-88191329D01*
X128141329Y-88273578D01*
X128076706Y-88370293D01*
X128032193Y-88477758D01*
X128009500Y-88591841D01*
X125215500Y-88591841D01*
X125215500Y-85009077D01*
X126834500Y-85009077D01*
X126834500Y-85090923D01*
X126850468Y-85171197D01*
X126881789Y-85246813D01*
X126927260Y-85314866D01*
X126985134Y-85372740D01*
X127053187Y-85418211D01*
X127128803Y-85449532D01*
X127209077Y-85465500D01*
X127290923Y-85465500D01*
X127371197Y-85449532D01*
X127446813Y-85418211D01*
X127514866Y-85372740D01*
X127572740Y-85314866D01*
X127618211Y-85246813D01*
X127649532Y-85171197D01*
X127665500Y-85090923D01*
X127665500Y-85009077D01*
X127649532Y-84928803D01*
X127618211Y-84853187D01*
X127572740Y-84785134D01*
X127514866Y-84727260D01*
X127446813Y-84681789D01*
X127371197Y-84650468D01*
X127290923Y-84634500D01*
X127209077Y-84634500D01*
X127128803Y-84650468D01*
X127053187Y-84681789D01*
X126985134Y-84727260D01*
X126927260Y-84785134D01*
X126881789Y-84853187D01*
X126850468Y-84928803D01*
X126834500Y-85009077D01*
X125215500Y-85009077D01*
X125215500Y-84591841D01*
X128009500Y-84591841D01*
X128009500Y-84708159D01*
X128032193Y-84822242D01*
X128076706Y-84929707D01*
X128141329Y-85026422D01*
X128223578Y-85108671D01*
X128320293Y-85173294D01*
X128427758Y-85217807D01*
X128541841Y-85240500D01*
X128658159Y-85240500D01*
X128772242Y-85217807D01*
X128879707Y-85173294D01*
X128976422Y-85108671D01*
X129058671Y-85026422D01*
X129123294Y-84929707D01*
X129167807Y-84822242D01*
X129190500Y-84708159D01*
X129190500Y-84591841D01*
X131599500Y-84591841D01*
X131599500Y-84708159D01*
X131622193Y-84822242D01*
X131666706Y-84929707D01*
X131731329Y-85026422D01*
X131813578Y-85108671D01*
X131910293Y-85173294D01*
X132017758Y-85217807D01*
X132131841Y-85240500D01*
X132248159Y-85240500D01*
X132362242Y-85217807D01*
X132469707Y-85173294D01*
X132566422Y-85108671D01*
X132648671Y-85026422D01*
X132713294Y-84929707D01*
X132757807Y-84822242D01*
X132780500Y-84708159D01*
X132780500Y-84591841D01*
X135209500Y-84591841D01*
X135209500Y-84708159D01*
X135232193Y-84822242D01*
X135276706Y-84929707D01*
X135341329Y-85026422D01*
X135423578Y-85108671D01*
X135520293Y-85173294D01*
X135627758Y-85217807D01*
X135741841Y-85240500D01*
X135858159Y-85240500D01*
X135972242Y-85217807D01*
X136079707Y-85173294D01*
X136176422Y-85108671D01*
X136258671Y-85026422D01*
X136323294Y-84929707D01*
X136367807Y-84822242D01*
X136390500Y-84708159D01*
X136390500Y-84591841D01*
X136367807Y-84477758D01*
X136323294Y-84370293D01*
X136258671Y-84273578D01*
X136176422Y-84191329D01*
X136079707Y-84126706D01*
X135972242Y-84082193D01*
X135858159Y-84059500D01*
X135741841Y-84059500D01*
X135627758Y-84082193D01*
X135520293Y-84126706D01*
X135423578Y-84191329D01*
X135341329Y-84273578D01*
X135276706Y-84370293D01*
X135232193Y-84477758D01*
X135209500Y-84591841D01*
X132780500Y-84591841D01*
X132757807Y-84477758D01*
X132713294Y-84370293D01*
X132648671Y-84273578D01*
X132566422Y-84191329D01*
X132469707Y-84126706D01*
X132362242Y-84082193D01*
X132248159Y-84059500D01*
X132131841Y-84059500D01*
X132017758Y-84082193D01*
X131910293Y-84126706D01*
X131813578Y-84191329D01*
X131731329Y-84273578D01*
X131666706Y-84370293D01*
X131622193Y-84477758D01*
X131599500Y-84591841D01*
X129190500Y-84591841D01*
X129167807Y-84477758D01*
X129123294Y-84370293D01*
X129058671Y-84273578D01*
X128976422Y-84191329D01*
X128879707Y-84126706D01*
X128772242Y-84082193D01*
X128658159Y-84059500D01*
X128541841Y-84059500D01*
X128427758Y-84082193D01*
X128320293Y-84126706D01*
X128223578Y-84191329D01*
X128141329Y-84273578D01*
X128076706Y-84370293D01*
X128032193Y-84477758D01*
X128009500Y-84591841D01*
X125215500Y-84591841D01*
X125215500Y-80941841D01*
X125409500Y-80941841D01*
X125409500Y-81058159D01*
X125432193Y-81172242D01*
X125476706Y-81279707D01*
X125541329Y-81376422D01*
X125623578Y-81458671D01*
X125720293Y-81523294D01*
X125827758Y-81567807D01*
X125941841Y-81590500D01*
X126058159Y-81590500D01*
X126172242Y-81567807D01*
X126279707Y-81523294D01*
X126376422Y-81458671D01*
X126458671Y-81376422D01*
X126523294Y-81279707D01*
X126567807Y-81172242D01*
X126590500Y-81058159D01*
X126590500Y-80941841D01*
X126567807Y-80827758D01*
X126523294Y-80720293D01*
X126458671Y-80623578D01*
X126376422Y-80541329D01*
X126279707Y-80476706D01*
X126172242Y-80432193D01*
X126058159Y-80409500D01*
X125941841Y-80409500D01*
X125827758Y-80432193D01*
X125720293Y-80476706D01*
X125623578Y-80541329D01*
X125541329Y-80623578D01*
X125476706Y-80720293D01*
X125432193Y-80827758D01*
X125409500Y-80941841D01*
X125215500Y-80941841D01*
X125215500Y-80320311D01*
X125322224Y-80213587D01*
X125452311Y-80131848D01*
X125597329Y-80081104D01*
X125727636Y-80066422D01*
X130800000Y-80066422D01*
X130818749Y-80065502D01*
X130823626Y-80065022D01*
X130860455Y-80057696D01*
X130865145Y-80056273D01*
X130899798Y-80041919D01*
X130904120Y-80039609D01*
X130935313Y-80018769D01*
X130939102Y-80015660D01*
X130965660Y-79989102D01*
X130968769Y-79985313D01*
X130989609Y-79954120D01*
X130991919Y-79949798D01*
X131006273Y-79915145D01*
X131007696Y-79910455D01*
X131015022Y-79873626D01*
X131015502Y-79868749D01*
X131016422Y-79850000D01*
X131016422Y-78259077D01*
X136834500Y-78259077D01*
X136834500Y-78340923D01*
X136850468Y-78421197D01*
X136881789Y-78496813D01*
X136927260Y-78564866D01*
X136985134Y-78622740D01*
X137053187Y-78668211D01*
X137128803Y-78699532D01*
X137209077Y-78715500D01*
X137290923Y-78715500D01*
X137371197Y-78699532D01*
X137446813Y-78668211D01*
X137514866Y-78622740D01*
X137572740Y-78564866D01*
X137618211Y-78496813D01*
X137649532Y-78421197D01*
X137665500Y-78340923D01*
X137665500Y-78259077D01*
X137649532Y-78178803D01*
X137618211Y-78103187D01*
X137572740Y-78035134D01*
X137514866Y-77977260D01*
X137446813Y-77931789D01*
X137371197Y-77900468D01*
X137290923Y-77884500D01*
X137209077Y-77884500D01*
X137128803Y-77900468D01*
X137053187Y-77931789D01*
X136985134Y-77977260D01*
X136927260Y-78035134D01*
X136881789Y-78103187D01*
X136850468Y-78178803D01*
X136834500Y-78259077D01*
X131016422Y-78259077D01*
X131016422Y-74927636D01*
X131031104Y-74797329D01*
X131081848Y-74652311D01*
X131163587Y-74522224D01*
X131272224Y-74413587D01*
X131402311Y-74331848D01*
X131547329Y-74281104D01*
X131685818Y-74265500D01*
X142760203Y-74265500D01*
X142899256Y-74281220D01*
G37*
X142899256Y-74281220D02*
X143044692Y-74332293D01*
X143175058Y-74414544D01*
X143283768Y-74523822D01*
X143365342Y-74654614D01*
X143415656Y-74800315D01*
X143432561Y-74957147D01*
X143420845Y-77209547D01*
X143418211Y-77203187D01*
X143372740Y-77135134D01*
X143314866Y-77077260D01*
X143246813Y-77031789D01*
X143171197Y-77000468D01*
X143090923Y-76984500D01*
X143009077Y-76984500D01*
X142928803Y-77000468D01*
X142853187Y-77031789D01*
X142785134Y-77077260D01*
X142727260Y-77135134D01*
X142681789Y-77203187D01*
X142650468Y-77278803D01*
X142634500Y-77359077D01*
X142634500Y-77440923D01*
X142650468Y-77521197D01*
X142681789Y-77596813D01*
X142727260Y-77664866D01*
X142785134Y-77722740D01*
X142853187Y-77768211D01*
X142928803Y-77799532D01*
X143009077Y-77815500D01*
X143090923Y-77815500D01*
X143171197Y-77799532D01*
X143246813Y-77768211D01*
X143314866Y-77722740D01*
X143372740Y-77664866D01*
X143418211Y-77596813D01*
X143418839Y-77595297D01*
X143415408Y-78254875D01*
X143397067Y-78410698D01*
X143345784Y-78555177D01*
X143263699Y-78684659D01*
X143154909Y-78792684D01*
X143024847Y-78873856D01*
X142880010Y-78924120D01*
X142724073Y-78941359D01*
X137477382Y-78931643D01*
X137470258Y-78932031D01*
X137303018Y-78950597D01*
X137289123Y-78953747D01*
X137130231Y-79009131D01*
X137117390Y-79015300D01*
X136974844Y-79104714D01*
X136963700Y-79113590D01*
X136844676Y-79232532D01*
X136835792Y-79243670D01*
X136746280Y-79386155D01*
X136740103Y-79398992D01*
X136684610Y-79557846D01*
X136681450Y-79571738D01*
X136662769Y-79738965D01*
X136662376Y-79746089D01*
X136685630Y-99715409D01*
X136686036Y-99722501D01*
X136704944Y-99888974D01*
X136708109Y-99902802D01*
X136763501Y-100060924D01*
X136769657Y-100073704D01*
X136858768Y-100215584D01*
X136867607Y-100226678D01*
X136985992Y-100345236D01*
X136997074Y-100354092D01*
X137138824Y-100443411D01*
X137151595Y-100449586D01*
X137309636Y-100505208D01*
X137323459Y-100508393D01*
X137489905Y-100527543D01*
X137496996Y-100527959D01*
X150297866Y-100561528D01*
X150304989Y-100561146D01*
X150472203Y-100542718D01*
X150486096Y-100539580D01*
X150644996Y-100484346D01*
X150657841Y-100478190D01*
X150800432Y-100388928D01*
X150811580Y-100380064D01*
X150930690Y-100261267D01*
X150939583Y-100250141D01*
X151029218Y-100107784D01*
X151035408Y-100094956D01*
X151091058Y-99936201D01*
X151094232Y-99922317D01*
X151113099Y-99755153D01*
X151113500Y-99748031D01*
X151113500Y-85634077D01*
X152634500Y-85634077D01*
X152634500Y-85715923D01*
X152650468Y-85796197D01*
X152681789Y-85871813D01*
X152727260Y-85939866D01*
X152785134Y-85997740D01*
X152853187Y-86043211D01*
X152928803Y-86074532D01*
X153009077Y-86090500D01*
X153090923Y-86090500D01*
X153171197Y-86074532D01*
X153246813Y-86043211D01*
X153314866Y-85997740D01*
X153372740Y-85939866D01*
X153418211Y-85871813D01*
X153449532Y-85796197D01*
X153465500Y-85715923D01*
X153465500Y-85634077D01*
X153449532Y-85553803D01*
X153418211Y-85478187D01*
X153372740Y-85410134D01*
X153314866Y-85352260D01*
X153246813Y-85306789D01*
X153171197Y-85275468D01*
X153090923Y-85259500D01*
X153009077Y-85259500D01*
X152928803Y-85275468D01*
X152853187Y-85306789D01*
X152785134Y-85352260D01*
X152727260Y-85410134D01*
X152681789Y-85478187D01*
X152650468Y-85553803D01*
X152634500Y-85634077D01*
X151113500Y-85634077D01*
X151113500Y-82103569D01*
X151131104Y-81947329D01*
X151181848Y-81802311D01*
X151263587Y-81672224D01*
X151372224Y-81563587D01*
X151502311Y-81481848D01*
X151647329Y-81431104D01*
X151803569Y-81413500D01*
X153578407Y-81413500D01*
X153623578Y-81458671D01*
X153720293Y-81523294D01*
X153827758Y-81567807D01*
X153941841Y-81590500D01*
X154058159Y-81590500D01*
X154172242Y-81567807D01*
X154279707Y-81523294D01*
X154376422Y-81458671D01*
X154403647Y-81431446D01*
X154547689Y-81481848D01*
X154677776Y-81563587D01*
X154784501Y-81670312D01*
X154784500Y-121329689D01*
X154677776Y-121436413D01*
X154601246Y-121484500D01*
X153589421Y-121484500D01*
X153579870Y-121485441D01*
X153574882Y-121485406D01*
X153571888Y-121485700D01*
X153416611Y-121502021D01*
X153397476Y-121505949D01*
X153378294Y-121509608D01*
X153375413Y-121510477D01*
X153226264Y-121556646D01*
X153208249Y-121564219D01*
X153190147Y-121571532D01*
X153187495Y-121572942D01*
X153187491Y-121572944D01*
X153187490Y-121572945D01*
X153162421Y-121586500D01*
X137329997Y-121586500D01*
X137213535Y-121568054D01*
X137112980Y-121516819D01*
X137072279Y-121476118D01*
X137044765Y-121389383D01*
X137037059Y-121371404D01*
X137029627Y-121353373D01*
X137028196Y-121350726D01*
X136966402Y-121238322D01*
X136941917Y-121083734D01*
X136938774Y-121071690D01*
X136935778Y-121064840D01*
X136875411Y-120946363D01*
X136868700Y-120935879D01*
X136863733Y-120930290D01*
X136769710Y-120836267D01*
X136760088Y-120828370D01*
X136753637Y-120824589D01*
X136635160Y-120764222D01*
X136623568Y-120759685D01*
X136616266Y-120758083D01*
X136484934Y-120737282D01*
X136475000Y-120736500D01*
X135825000Y-120736500D01*
X135815066Y-120737282D01*
X135683734Y-120758083D01*
X135671690Y-120761226D01*
X135664840Y-120764222D01*
X135546363Y-120824589D01*
X135535879Y-120831300D01*
X135530290Y-120836267D01*
X135436267Y-120930290D01*
X135428370Y-120939912D01*
X135424589Y-120946363D01*
X135364222Y-121064840D01*
X135359685Y-121076432D01*
X135358083Y-121083735D01*
X135337283Y-121215067D01*
X135334015Y-121235700D01*
X135266315Y-121363025D01*
X135258871Y-121381085D01*
X135251177Y-121399037D01*
X135250288Y-121401908D01*
X135250288Y-121401910D01*
X135250287Y-121401912D01*
X135227953Y-121475887D01*
X135187021Y-121516819D01*
X135086466Y-121568054D01*
X134970004Y-121586500D01*
X126836893Y-121586500D01*
X126806027Y-121570088D01*
X126787979Y-121562649D01*
X126770017Y-121554950D01*
X126767152Y-121554064D01*
X126767142Y-121554060D01*
X126767132Y-121554058D01*
X126617673Y-121508934D01*
X126598539Y-121505145D01*
X126579409Y-121501079D01*
X126576425Y-121500766D01*
X126576415Y-121500764D01*
X126576406Y-121500764D01*
X126421029Y-121485529D01*
X126421026Y-121485529D01*
X126410579Y-121484500D01*
X125398754Y-121484500D01*
X125322224Y-121436413D01*
X125215500Y-121329689D01*
X125215500Y-118841841D01*
X125409500Y-118841841D01*
X125409500Y-118958159D01*
X125432193Y-119072242D01*
X125476706Y-119179707D01*
X125541329Y-119276422D01*
X125623578Y-119358671D01*
X125720293Y-119423294D01*
X125827758Y-119467807D01*
X125941841Y-119490500D01*
X126058159Y-119490500D01*
X126172242Y-119467807D01*
X126279707Y-119423294D01*
X126376422Y-119358671D01*
X126458671Y-119276422D01*
X126523294Y-119179707D01*
X126567807Y-119072242D01*
X126590500Y-118958159D01*
X126590500Y-118841841D01*
X153409500Y-118841841D01*
X153409500Y-118958159D01*
X153432193Y-119072242D01*
X153476706Y-119179707D01*
X153541329Y-119276422D01*
X153623578Y-119358671D01*
X153720293Y-119423294D01*
X153827758Y-119467807D01*
X153941841Y-119490500D01*
X154058159Y-119490500D01*
X154172242Y-119467807D01*
X154279707Y-119423294D01*
X154376422Y-119358671D01*
X154458671Y-119276422D01*
X154523294Y-119179707D01*
X154567807Y-119072242D01*
X154590500Y-118958159D01*
X154590500Y-118841841D01*
X154567807Y-118727758D01*
X154523294Y-118620293D01*
X154458671Y-118523578D01*
X154376422Y-118441329D01*
X154279707Y-118376706D01*
X154172242Y-118332193D01*
X154058159Y-118309500D01*
X153941841Y-118309500D01*
X153827758Y-118332193D01*
X153720293Y-118376706D01*
X153623578Y-118441329D01*
X153541329Y-118523578D01*
X153476706Y-118620293D01*
X153432193Y-118727758D01*
X153409500Y-118841841D01*
X126590500Y-118841841D01*
X126567807Y-118727758D01*
X126523294Y-118620293D01*
X126458671Y-118523578D01*
X126376422Y-118441329D01*
X126279707Y-118376706D01*
X126172242Y-118332193D01*
X126058159Y-118309500D01*
X125941841Y-118309500D01*
X125827758Y-118332193D01*
X125720293Y-118376706D01*
X125623578Y-118441329D01*
X125541329Y-118523578D01*
X125476706Y-118620293D01*
X125432193Y-118727758D01*
X125409500Y-118841841D01*
X125215500Y-118841841D01*
X125215500Y-105371765D01*
X136984500Y-105371765D01*
X136984500Y-105478235D01*
X137005271Y-105582658D01*
X137046015Y-105681023D01*
X137105166Y-105769549D01*
X137180451Y-105844834D01*
X137268977Y-105903985D01*
X137367342Y-105944729D01*
X137471765Y-105965500D01*
X137578235Y-105965500D01*
X137682658Y-105944729D01*
X137781023Y-105903985D01*
X137869549Y-105844834D01*
X137944834Y-105769549D01*
X138003985Y-105681023D01*
X138044729Y-105582658D01*
X138065500Y-105478235D01*
X138065500Y-105371765D01*
X138044729Y-105267342D01*
X138003985Y-105168977D01*
X137944834Y-105080451D01*
X137869549Y-105005166D01*
X137800572Y-104959077D01*
X139384500Y-104959077D01*
X139384500Y-105040923D01*
X139400468Y-105121197D01*
X139431789Y-105196813D01*
X139477260Y-105264866D01*
X139535134Y-105322740D01*
X139603187Y-105368211D01*
X139678803Y-105399532D01*
X139759077Y-105415500D01*
X139840923Y-105415500D01*
X139921197Y-105399532D01*
X139996813Y-105368211D01*
X140064866Y-105322740D01*
X140122740Y-105264866D01*
X140168211Y-105196813D01*
X140199532Y-105121197D01*
X140215500Y-105040923D01*
X140215500Y-104959077D01*
X140199532Y-104878803D01*
X140168211Y-104803187D01*
X140122740Y-104735134D01*
X140064866Y-104677260D01*
X139996813Y-104631789D01*
X139921197Y-104600468D01*
X139840923Y-104584500D01*
X139759077Y-104584500D01*
X139678803Y-104600468D01*
X139603187Y-104631789D01*
X139535134Y-104677260D01*
X139477260Y-104735134D01*
X139431789Y-104803187D01*
X139400468Y-104878803D01*
X139384500Y-104959077D01*
X137800572Y-104959077D01*
X137781023Y-104946015D01*
X137682658Y-104905271D01*
X137578235Y-104884500D01*
X137471765Y-104884500D01*
X137367342Y-104905271D01*
X137268977Y-104946015D01*
X137180451Y-105005166D01*
X137105166Y-105080451D01*
X137046015Y-105168977D01*
X137005271Y-105267342D01*
X136984500Y-105371765D01*
X125215500Y-105371765D01*
X125215500Y-103901690D01*
X130809500Y-103901690D01*
X130809500Y-103998310D01*
X130828350Y-104093073D01*
X130865325Y-104182339D01*
X130919004Y-104262675D01*
X130987325Y-104330996D01*
X131067661Y-104384675D01*
X131156927Y-104421650D01*
X131251690Y-104440500D01*
X131348310Y-104440500D01*
X131443073Y-104421650D01*
X131532339Y-104384675D01*
X131612675Y-104330996D01*
X131680996Y-104262675D01*
X131734675Y-104182339D01*
X131771650Y-104093073D01*
X131790500Y-103998310D01*
X131790500Y-103901690D01*
X131771650Y-103806927D01*
X131734675Y-103717661D01*
X131680996Y-103637325D01*
X131612675Y-103569004D01*
X131532339Y-103515325D01*
X131443073Y-103478350D01*
X131348310Y-103459500D01*
X131251690Y-103459500D01*
X131156927Y-103478350D01*
X131067661Y-103515325D01*
X130987325Y-103569004D01*
X130919004Y-103637325D01*
X130865325Y-103717661D01*
X130828350Y-103806927D01*
X130809500Y-103901690D01*
X125215500Y-103901690D01*
X125215500Y-101201690D01*
X139659500Y-101201690D01*
X139659500Y-101298310D01*
X139678350Y-101393073D01*
X139715325Y-101482339D01*
X139769004Y-101562675D01*
X139837325Y-101630996D01*
X139917661Y-101684675D01*
X140006927Y-101721650D01*
X140101690Y-101740500D01*
X140198310Y-101740500D01*
X140293073Y-101721650D01*
X140382339Y-101684675D01*
X140462675Y-101630996D01*
X140530996Y-101562675D01*
X140584675Y-101482339D01*
X140621650Y-101393073D01*
X140640500Y-101298310D01*
X140640500Y-101201690D01*
X141684500Y-101201690D01*
X141684500Y-101298310D01*
X141703350Y-101393073D01*
X141740325Y-101482339D01*
X141794004Y-101562675D01*
X141862325Y-101630996D01*
X141942661Y-101684675D01*
X142031927Y-101721650D01*
X142126690Y-101740500D01*
X142223310Y-101740500D01*
X142318073Y-101721650D01*
X142407339Y-101684675D01*
X142487675Y-101630996D01*
X142555996Y-101562675D01*
X142609675Y-101482339D01*
X142646650Y-101393073D01*
X142665500Y-101298310D01*
X142665500Y-101201690D01*
X142646650Y-101106927D01*
X142609675Y-101017661D01*
X142555996Y-100937325D01*
X142487675Y-100869004D01*
X142407339Y-100815325D01*
X142318073Y-100778350D01*
X142223310Y-100759500D01*
X142126690Y-100759500D01*
X142031927Y-100778350D01*
X141942661Y-100815325D01*
X141862325Y-100869004D01*
X141794004Y-100937325D01*
X141740325Y-101017661D01*
X141703350Y-101106927D01*
X141684500Y-101201690D01*
X140640500Y-101201690D01*
X140621650Y-101106927D01*
X140584675Y-101017661D01*
X140530996Y-100937325D01*
X140462675Y-100869004D01*
X140382339Y-100815325D01*
X140293073Y-100778350D01*
X140198310Y-100759500D01*
X140101690Y-100759500D01*
X140006927Y-100778350D01*
X139917661Y-100815325D01*
X139837325Y-100869004D01*
X139769004Y-100937325D01*
X139715325Y-101017661D01*
X139678350Y-101106927D01*
X139659500Y-101201690D01*
X125215500Y-101201690D01*
X125215500Y-96591841D01*
X128009500Y-96591841D01*
X128009500Y-96708159D01*
X128032193Y-96822242D01*
X128076706Y-96929707D01*
X128141329Y-97026422D01*
X128223578Y-97108671D01*
X128320293Y-97173294D01*
X128427758Y-97217807D01*
X128541841Y-97240500D01*
X128658159Y-97240500D01*
X128772242Y-97217807D01*
X128879707Y-97173294D01*
X128976422Y-97108671D01*
X129058671Y-97026422D01*
X129123294Y-96929707D01*
X129167807Y-96822242D01*
X129190500Y-96708159D01*
X129190500Y-96591841D01*
X131609500Y-96591841D01*
X131609500Y-96708159D01*
X131632193Y-96822242D01*
X131676706Y-96929707D01*
X131741329Y-97026422D01*
X131823578Y-97108671D01*
X131920293Y-97173294D01*
X132027758Y-97217807D01*
X132141841Y-97240500D01*
X132258159Y-97240500D01*
X132372242Y-97217807D01*
X132479707Y-97173294D01*
X132576422Y-97108671D01*
X132658671Y-97026422D01*
X132723294Y-96929707D01*
X132767807Y-96822242D01*
X132790500Y-96708159D01*
X132790500Y-96591841D01*
X135209500Y-96591841D01*
X135209500Y-96708159D01*
X135232193Y-96822242D01*
X135276706Y-96929707D01*
X135341329Y-97026422D01*
X135423578Y-97108671D01*
X135520293Y-97173294D01*
X135627758Y-97217807D01*
X135741841Y-97240500D01*
X135858159Y-97240500D01*
X135972242Y-97217807D01*
X136079707Y-97173294D01*
X136176422Y-97108671D01*
X136258671Y-97026422D01*
X136323294Y-96929707D01*
X136367807Y-96822242D01*
X136390500Y-96708159D01*
X136390500Y-96591841D01*
X136367807Y-96477758D01*
X136323294Y-96370293D01*
X136258671Y-96273578D01*
X136176422Y-96191329D01*
X136079707Y-96126706D01*
X135972242Y-96082193D01*
X135858159Y-96059500D01*
X135741841Y-96059500D01*
X135627758Y-96082193D01*
X135520293Y-96126706D01*
X135423578Y-96191329D01*
X135341329Y-96273578D01*
X135276706Y-96370293D01*
X135232193Y-96477758D01*
X135209500Y-96591841D01*
X132790500Y-96591841D01*
X132767807Y-96477758D01*
X132723294Y-96370293D01*
X132658671Y-96273578D01*
X132576422Y-96191329D01*
X132479707Y-96126706D01*
X132372242Y-96082193D01*
X132258159Y-96059500D01*
X132141841Y-96059500D01*
X132027758Y-96082193D01*
X131920293Y-96126706D01*
X131823578Y-96191329D01*
X131741329Y-96273578D01*
X131676706Y-96370293D01*
X131632193Y-96477758D01*
X131609500Y-96591841D01*
X129190500Y-96591841D01*
X129167807Y-96477758D01*
X129123294Y-96370293D01*
X129058671Y-96273578D01*
X128976422Y-96191329D01*
X128879707Y-96126706D01*
X128772242Y-96082193D01*
X128658159Y-96059500D01*
X128541841Y-96059500D01*
X128427758Y-96082193D01*
X128320293Y-96126706D01*
X128223578Y-96191329D01*
X128141329Y-96273578D01*
X128076706Y-96370293D01*
X128032193Y-96477758D01*
X128009500Y-96591841D01*
X125215500Y-96591841D01*
X125215500Y-92591841D01*
X128009500Y-92591841D01*
X128009500Y-92708159D01*
X128032193Y-92822242D01*
X128076706Y-92929707D01*
X128141329Y-93026422D01*
X128223578Y-93108671D01*
X128320293Y-93173294D01*
X128427758Y-93217807D01*
X128541841Y-93240500D01*
X128658159Y-93240500D01*
X128772242Y-93217807D01*
X128879707Y-93173294D01*
X128976422Y-93108671D01*
X129058671Y-93026422D01*
X129123294Y-92929707D01*
X129167807Y-92822242D01*
X129190500Y-92708159D01*
X129190500Y-92591841D01*
X131609500Y-92591841D01*
X131609500Y-92708159D01*
X131632193Y-92822242D01*
X131676706Y-92929707D01*
X131741329Y-93026422D01*
X131823578Y-93108671D01*
X131920293Y-93173294D01*
X132027758Y-93217807D01*
X132141841Y-93240500D01*
X132258159Y-93240500D01*
X132372242Y-93217807D01*
X132479707Y-93173294D01*
X132576422Y-93108671D01*
X132658671Y-93026422D01*
X132723294Y-92929707D01*
X132767807Y-92822242D01*
X132790500Y-92708159D01*
X132790500Y-92591841D01*
X135209500Y-92591841D01*
X135209500Y-92708159D01*
X135232193Y-92822242D01*
X135276706Y-92929707D01*
X135341329Y-93026422D01*
X135423578Y-93108671D01*
X135520293Y-93173294D01*
X135627758Y-93217807D01*
X135741841Y-93240500D01*
X135858159Y-93240500D01*
X135972242Y-93217807D01*
X136079707Y-93173294D01*
X136176422Y-93108671D01*
X136258671Y-93026422D01*
X136323294Y-92929707D01*
X136367807Y-92822242D01*
X136390500Y-92708159D01*
X136390500Y-92591841D01*
X136367807Y-92477758D01*
X136323294Y-92370293D01*
X136258671Y-92273578D01*
X136176422Y-92191329D01*
X136079707Y-92126706D01*
X135972242Y-92082193D01*
X135858159Y-92059500D01*
X135741841Y-92059500D01*
X135627758Y-92082193D01*
X135520293Y-92126706D01*
X135423578Y-92191329D01*
X135341329Y-92273578D01*
X135276706Y-92370293D01*
X135232193Y-92477758D01*
X135209500Y-92591841D01*
X132790500Y-92591841D01*
X132767807Y-92477758D01*
X132723294Y-92370293D01*
X132658671Y-92273578D01*
X132576422Y-92191329D01*
X132479707Y-92126706D01*
X132372242Y-92082193D01*
X132258159Y-92059500D01*
X132141841Y-92059500D01*
X132027758Y-92082193D01*
X131920293Y-92126706D01*
X131823578Y-92191329D01*
X131741329Y-92273578D01*
X131676706Y-92370293D01*
X131632193Y-92477758D01*
X131609500Y-92591841D01*
X129190500Y-92591841D01*
X129167807Y-92477758D01*
X129123294Y-92370293D01*
X129058671Y-92273578D01*
X128976422Y-92191329D01*
X128879707Y-92126706D01*
X128772242Y-92082193D01*
X128658159Y-92059500D01*
X128541841Y-92059500D01*
X128427758Y-92082193D01*
X128320293Y-92126706D01*
X128223578Y-92191329D01*
X128141329Y-92273578D01*
X128076706Y-92370293D01*
X128032193Y-92477758D01*
X128009500Y-92591841D01*
X125215500Y-92591841D01*
X125215500Y-88591841D01*
X128009500Y-88591841D01*
X128009500Y-88708159D01*
X128032193Y-88822242D01*
X128076706Y-88929707D01*
X128141329Y-89026422D01*
X128223578Y-89108671D01*
X128320293Y-89173294D01*
X128427758Y-89217807D01*
X128541841Y-89240500D01*
X128658159Y-89240500D01*
X128772242Y-89217807D01*
X128879707Y-89173294D01*
X128976422Y-89108671D01*
X129058671Y-89026422D01*
X129123294Y-88929707D01*
X129167807Y-88822242D01*
X129190500Y-88708159D01*
X129190500Y-88591841D01*
X131609500Y-88591841D01*
X131609500Y-88708159D01*
X131632193Y-88822242D01*
X131676706Y-88929707D01*
X131741329Y-89026422D01*
X131823578Y-89108671D01*
X131920293Y-89173294D01*
X132027758Y-89217807D01*
X132141841Y-89240500D01*
X132258159Y-89240500D01*
X132372242Y-89217807D01*
X132479707Y-89173294D01*
X132576422Y-89108671D01*
X132658671Y-89026422D01*
X132723294Y-88929707D01*
X132767807Y-88822242D01*
X132790500Y-88708159D01*
X132790500Y-88591841D01*
X135209500Y-88591841D01*
X135209500Y-88708159D01*
X135232193Y-88822242D01*
X135276706Y-88929707D01*
X135341329Y-89026422D01*
X135423578Y-89108671D01*
X135520293Y-89173294D01*
X135627758Y-89217807D01*
X135741841Y-89240500D01*
X135858159Y-89240500D01*
X135972242Y-89217807D01*
X136079707Y-89173294D01*
X136176422Y-89108671D01*
X136258671Y-89026422D01*
X136323294Y-88929707D01*
X136367807Y-88822242D01*
X136390500Y-88708159D01*
X136390500Y-88591841D01*
X136367807Y-88477758D01*
X136323294Y-88370293D01*
X136258671Y-88273578D01*
X136176422Y-88191329D01*
X136079707Y-88126706D01*
X135972242Y-88082193D01*
X135858159Y-88059500D01*
X135741841Y-88059500D01*
X135627758Y-88082193D01*
X135520293Y-88126706D01*
X135423578Y-88191329D01*
X135341329Y-88273578D01*
X135276706Y-88370293D01*
X135232193Y-88477758D01*
X135209500Y-88591841D01*
X132790500Y-88591841D01*
X132767807Y-88477758D01*
X132723294Y-88370293D01*
X132658671Y-88273578D01*
X132576422Y-88191329D01*
X132479707Y-88126706D01*
X132372242Y-88082193D01*
X132258159Y-88059500D01*
X132141841Y-88059500D01*
X132027758Y-88082193D01*
X131920293Y-88126706D01*
X131823578Y-88191329D01*
X131741329Y-88273578D01*
X131676706Y-88370293D01*
X131632193Y-88477758D01*
X131609500Y-88591841D01*
X129190500Y-88591841D01*
X129167807Y-88477758D01*
X129123294Y-88370293D01*
X129058671Y-88273578D01*
X128976422Y-88191329D01*
X128879707Y-88126706D01*
X128772242Y-88082193D01*
X128658159Y-88059500D01*
X128541841Y-88059500D01*
X128427758Y-88082193D01*
X128320293Y-88126706D01*
X128223578Y-88191329D01*
X128141329Y-88273578D01*
X128076706Y-88370293D01*
X128032193Y-88477758D01*
X128009500Y-88591841D01*
X125215500Y-88591841D01*
X125215500Y-85009077D01*
X126834500Y-85009077D01*
X126834500Y-85090923D01*
X126850468Y-85171197D01*
X126881789Y-85246813D01*
X126927260Y-85314866D01*
X126985134Y-85372740D01*
X127053187Y-85418211D01*
X127128803Y-85449532D01*
X127209077Y-85465500D01*
X127290923Y-85465500D01*
X127371197Y-85449532D01*
X127446813Y-85418211D01*
X127514866Y-85372740D01*
X127572740Y-85314866D01*
X127618211Y-85246813D01*
X127649532Y-85171197D01*
X127665500Y-85090923D01*
X127665500Y-85009077D01*
X127649532Y-84928803D01*
X127618211Y-84853187D01*
X127572740Y-84785134D01*
X127514866Y-84727260D01*
X127446813Y-84681789D01*
X127371197Y-84650468D01*
X127290923Y-84634500D01*
X127209077Y-84634500D01*
X127128803Y-84650468D01*
X127053187Y-84681789D01*
X126985134Y-84727260D01*
X126927260Y-84785134D01*
X126881789Y-84853187D01*
X126850468Y-84928803D01*
X126834500Y-85009077D01*
X125215500Y-85009077D01*
X125215500Y-84591841D01*
X128009500Y-84591841D01*
X128009500Y-84708159D01*
X128032193Y-84822242D01*
X128076706Y-84929707D01*
X128141329Y-85026422D01*
X128223578Y-85108671D01*
X128320293Y-85173294D01*
X128427758Y-85217807D01*
X128541841Y-85240500D01*
X128658159Y-85240500D01*
X128772242Y-85217807D01*
X128879707Y-85173294D01*
X128976422Y-85108671D01*
X129058671Y-85026422D01*
X129123294Y-84929707D01*
X129167807Y-84822242D01*
X129190500Y-84708159D01*
X129190500Y-84591841D01*
X131599500Y-84591841D01*
X131599500Y-84708159D01*
X131622193Y-84822242D01*
X131666706Y-84929707D01*
X131731329Y-85026422D01*
X131813578Y-85108671D01*
X131910293Y-85173294D01*
X132017758Y-85217807D01*
X132131841Y-85240500D01*
X132248159Y-85240500D01*
X132362242Y-85217807D01*
X132469707Y-85173294D01*
X132566422Y-85108671D01*
X132648671Y-85026422D01*
X132713294Y-84929707D01*
X132757807Y-84822242D01*
X132780500Y-84708159D01*
X132780500Y-84591841D01*
X135209500Y-84591841D01*
X135209500Y-84708159D01*
X135232193Y-84822242D01*
X135276706Y-84929707D01*
X135341329Y-85026422D01*
X135423578Y-85108671D01*
X135520293Y-85173294D01*
X135627758Y-85217807D01*
X135741841Y-85240500D01*
X135858159Y-85240500D01*
X135972242Y-85217807D01*
X136079707Y-85173294D01*
X136176422Y-85108671D01*
X136258671Y-85026422D01*
X136323294Y-84929707D01*
X136367807Y-84822242D01*
X136390500Y-84708159D01*
X136390500Y-84591841D01*
X136367807Y-84477758D01*
X136323294Y-84370293D01*
X136258671Y-84273578D01*
X136176422Y-84191329D01*
X136079707Y-84126706D01*
X135972242Y-84082193D01*
X135858159Y-84059500D01*
X135741841Y-84059500D01*
X135627758Y-84082193D01*
X135520293Y-84126706D01*
X135423578Y-84191329D01*
X135341329Y-84273578D01*
X135276706Y-84370293D01*
X135232193Y-84477758D01*
X135209500Y-84591841D01*
X132780500Y-84591841D01*
X132757807Y-84477758D01*
X132713294Y-84370293D01*
X132648671Y-84273578D01*
X132566422Y-84191329D01*
X132469707Y-84126706D01*
X132362242Y-84082193D01*
X132248159Y-84059500D01*
X132131841Y-84059500D01*
X132017758Y-84082193D01*
X131910293Y-84126706D01*
X131813578Y-84191329D01*
X131731329Y-84273578D01*
X131666706Y-84370293D01*
X131622193Y-84477758D01*
X131599500Y-84591841D01*
X129190500Y-84591841D01*
X129167807Y-84477758D01*
X129123294Y-84370293D01*
X129058671Y-84273578D01*
X128976422Y-84191329D01*
X128879707Y-84126706D01*
X128772242Y-84082193D01*
X128658159Y-84059500D01*
X128541841Y-84059500D01*
X128427758Y-84082193D01*
X128320293Y-84126706D01*
X128223578Y-84191329D01*
X128141329Y-84273578D01*
X128076706Y-84370293D01*
X128032193Y-84477758D01*
X128009500Y-84591841D01*
X125215500Y-84591841D01*
X125215500Y-80941841D01*
X125409500Y-80941841D01*
X125409500Y-81058159D01*
X125432193Y-81172242D01*
X125476706Y-81279707D01*
X125541329Y-81376422D01*
X125623578Y-81458671D01*
X125720293Y-81523294D01*
X125827758Y-81567807D01*
X125941841Y-81590500D01*
X126058159Y-81590500D01*
X126172242Y-81567807D01*
X126279707Y-81523294D01*
X126376422Y-81458671D01*
X126458671Y-81376422D01*
X126523294Y-81279707D01*
X126567807Y-81172242D01*
X126590500Y-81058159D01*
X126590500Y-80941841D01*
X126567807Y-80827758D01*
X126523294Y-80720293D01*
X126458671Y-80623578D01*
X126376422Y-80541329D01*
X126279707Y-80476706D01*
X126172242Y-80432193D01*
X126058159Y-80409500D01*
X125941841Y-80409500D01*
X125827758Y-80432193D01*
X125720293Y-80476706D01*
X125623578Y-80541329D01*
X125541329Y-80623578D01*
X125476706Y-80720293D01*
X125432193Y-80827758D01*
X125409500Y-80941841D01*
X125215500Y-80941841D01*
X125215500Y-80320311D01*
X125322224Y-80213587D01*
X125452311Y-80131848D01*
X125597329Y-80081104D01*
X125727636Y-80066422D01*
X130800000Y-80066422D01*
X130818749Y-80065502D01*
X130823626Y-80065022D01*
X130860455Y-80057696D01*
X130865145Y-80056273D01*
X130899798Y-80041919D01*
X130904120Y-80039609D01*
X130935313Y-80018769D01*
X130939102Y-80015660D01*
X130965660Y-79989102D01*
X130968769Y-79985313D01*
X130989609Y-79954120D01*
X130991919Y-79949798D01*
X131006273Y-79915145D01*
X131007696Y-79910455D01*
X131015022Y-79873626D01*
X131015502Y-79868749D01*
X131016422Y-79850000D01*
X131016422Y-78259077D01*
X136834500Y-78259077D01*
X136834500Y-78340923D01*
X136850468Y-78421197D01*
X136881789Y-78496813D01*
X136927260Y-78564866D01*
X136985134Y-78622740D01*
X137053187Y-78668211D01*
X137128803Y-78699532D01*
X137209077Y-78715500D01*
X137290923Y-78715500D01*
X137371197Y-78699532D01*
X137446813Y-78668211D01*
X137514866Y-78622740D01*
X137572740Y-78564866D01*
X137618211Y-78496813D01*
X137649532Y-78421197D01*
X137665500Y-78340923D01*
X137665500Y-78259077D01*
X137649532Y-78178803D01*
X137618211Y-78103187D01*
X137572740Y-78035134D01*
X137514866Y-77977260D01*
X137446813Y-77931789D01*
X137371197Y-77900468D01*
X137290923Y-77884500D01*
X137209077Y-77884500D01*
X137128803Y-77900468D01*
X137053187Y-77931789D01*
X136985134Y-77977260D01*
X136927260Y-78035134D01*
X136881789Y-78103187D01*
X136850468Y-78178803D01*
X136834500Y-78259077D01*
X131016422Y-78259077D01*
X131016422Y-74927636D01*
X131031104Y-74797329D01*
X131081848Y-74652311D01*
X131163587Y-74522224D01*
X131272224Y-74413587D01*
X131402311Y-74331848D01*
X131547329Y-74281104D01*
X131685818Y-74265500D01*
X142760203Y-74265500D01*
X142899256Y-74281220D01*
G04 #@! TD*
M02*
