G04 #@! TF.GenerationSoftware,KiCad,Pcbnew,5.1.5+dfsg1-2build2*
G04 #@! TF.CreationDate,2021-01-22T23:18:44+11:00*
G04 #@! TF.ProjectId,mPCIe-LEA-4L,6d504349-652d-44c4-9541-2d344c2e6b69,1*
G04 #@! TF.SameCoordinates,Original*
G04 #@! TF.FileFunction,Legend,Top*
G04 #@! TF.FilePolarity,Positive*
%FSLAX46Y46*%
G04 Gerber Fmt 4.6, Leading zero omitted, Abs format (unit mm)*
G04 Created by KiCad (PCBNEW 5.1.5+dfsg1-2build2) date 2021-01-22 23:18:44*
%MOMM*%
%LPD*%
G04 APERTURE LIST*
%ADD10C,0.120000*%
G04 #@! TA.AperFunction,Profile*
%ADD11C,0.050000*%
G04 #@! TD*
%ADD12C,0.200000*%
%ADD13C,0.127000*%
%ADD14C,0.100000*%
%ADD15C,0.015000*%
G04 APERTURE END LIST*
D10*
G04 #@! TO.C,R6*
X143137221Y-80460000D02*
X143462779Y-80460000D01*
X143137221Y-79440000D02*
X143462779Y-79440000D01*
D11*
G04 #@! TO.C,PC1*
X136900000Y-125000000D02*
X136900000Y-121750000D01*
X127200000Y-125000000D02*
X127200000Y-122500000D01*
X125000000Y-121700000D02*
X126400000Y-121700000D01*
X152800000Y-125000000D02*
X152800000Y-122500000D01*
X153600000Y-121700000D02*
X155000000Y-121700000D01*
X135400000Y-125000000D02*
X127200000Y-125000000D01*
X125000000Y-74050000D02*
X155000000Y-74050000D01*
X155000000Y-121700000D02*
X155000000Y-74050000D01*
X125000000Y-121700000D02*
X125000000Y-74050000D01*
X136900000Y-125000000D02*
X152800000Y-125000000D01*
X135400000Y-125000000D02*
X135400000Y-121750000D01*
X153600000Y-121700000D02*
G75*
G03X152800000Y-122500000I0J-800000D01*
G01*
X126400000Y-121700000D02*
G75*
G02X127200000Y-122500000I0J-800000D01*
G01*
X135400000Y-121750000D02*
G75*
G02X136900000Y-121750000I750000J0D01*
G01*
D10*
G04 #@! TO.C,C3*
X136574721Y-101710000D02*
X136900279Y-101710000D01*
X136574721Y-100690000D02*
X136900279Y-100690000D01*
G04 #@! TO.C,U1*
X130040000Y-100200000D02*
X130040000Y-99510000D01*
X128040000Y-99510000D02*
X130040000Y-99510000D01*
X139060000Y-99510000D02*
X141540000Y-99510000D01*
X148360000Y-82290000D02*
X150660000Y-82290000D01*
X150660000Y-99510000D02*
X150660000Y-82290000D01*
X148360000Y-99510000D02*
X150660000Y-99510000D01*
X139060000Y-82290000D02*
X141540000Y-82290000D01*
X128040000Y-99510000D02*
X128040000Y-82290000D01*
X128040000Y-82290000D02*
X130040000Y-82290000D01*
G04 #@! TO.C,J2*
X126215000Y-104710000D02*
X126215000Y-110590000D01*
X130685000Y-111760000D02*
X130685000Y-110710000D01*
X128185000Y-111760000D02*
X130685000Y-111760000D01*
X130685000Y-104590000D02*
X131675000Y-104590000D01*
X130685000Y-103540000D02*
X130685000Y-104590000D01*
X128185000Y-103540000D02*
X130685000Y-103540000D01*
D12*
G04 #@! TO.C,Q1*
X127250000Y-82220000D02*
G75*
G03X127250000Y-82220000I-100000J0D01*
G01*
D13*
X125513069Y-84489754D02*
X125513069Y-83629754D01*
X126013069Y-84489754D02*
X125513069Y-84489754D01*
X127386274Y-84491441D02*
X127386274Y-83631441D01*
X126886274Y-84491441D02*
X127386274Y-84491441D01*
D10*
G04 #@! TO.C,C1*
X136900279Y-104710000D02*
X136574721Y-104710000D01*
X136900279Y-103690000D02*
X136574721Y-103690000D01*
D12*
G04 #@! TO.C,Q2*
X152450000Y-89025000D02*
G75*
G03X152450000Y-89025000I-100000J0D01*
G01*
D13*
X153986931Y-86755246D02*
X153986931Y-87615246D01*
X153486931Y-86755246D02*
X153986931Y-86755246D01*
X152113726Y-86753559D02*
X152113726Y-87613559D01*
X152613726Y-86753559D02*
X152113726Y-86753559D01*
D10*
G04 #@! TO.C,LED2*
X138050000Y-75315000D02*
X135765000Y-75315000D01*
X135765000Y-75315000D02*
X135765000Y-76785000D01*
X135765000Y-76785000D02*
X138050000Y-76785000D01*
D13*
G04 #@! TO.C,BAT1*
X143963000Y-104275000D02*
X143400000Y-104275000D01*
X143400000Y-104275000D02*
X143400000Y-115975000D01*
X143400000Y-115975000D02*
X144362000Y-115975000D01*
X149238000Y-115975000D02*
X150200000Y-115975000D01*
X150200000Y-115975000D02*
X150200000Y-104275000D01*
X150200000Y-104275000D02*
X149657000Y-104275000D01*
D10*
G04 #@! TO.C,LED1*
X133987500Y-75315000D02*
X131702500Y-75315000D01*
X131702500Y-75315000D02*
X131702500Y-76785000D01*
X131702500Y-76785000D02*
X133987500Y-76785000D01*
G04 #@! TO.C,J1*
X145250000Y-75440000D02*
X147950000Y-75440000D01*
X145840000Y-78160000D02*
X145840000Y-78790000D01*
X148000000Y-78160000D02*
X147360000Y-78160000D01*
X145200000Y-78160000D02*
X145840000Y-78160000D01*
G04 #@! TO.C,LED3*
X142000000Y-75315000D02*
X139715000Y-75315000D01*
X139715000Y-75315000D02*
X139715000Y-76785000D01*
X139715000Y-76785000D02*
X142000000Y-76785000D01*
G04 #@! TO.C,D1*
X151900000Y-104225000D02*
X150700000Y-104225000D01*
X151900000Y-106075000D02*
X151900000Y-104225000D01*
X150700000Y-106075000D02*
X150700000Y-104225000D01*
G04 #@! TO.C,C2*
X136900279Y-102190000D02*
X136574721Y-102190000D01*
X136900279Y-103210000D02*
X136574721Y-103210000D01*
G04 #@! TD*
G04 #@! TO.C,R6*
D14*
X141721428Y-80050000D02*
X141435714Y-80250000D01*
X141721428Y-80392857D02*
X141121428Y-80392857D01*
X141121428Y-80164285D01*
X141150000Y-80107142D01*
X141178571Y-80078571D01*
X141235714Y-80050000D01*
X141321428Y-80050000D01*
X141378571Y-80078571D01*
X141407142Y-80107142D01*
X141435714Y-80164285D01*
X141435714Y-80392857D01*
X141121428Y-79535714D02*
X141121428Y-79650000D01*
X141150000Y-79707142D01*
X141178571Y-79735714D01*
X141264285Y-79792857D01*
X141378571Y-79821428D01*
X141607142Y-79821428D01*
X141664285Y-79792857D01*
X141692857Y-79764285D01*
X141721428Y-79707142D01*
X141721428Y-79592857D01*
X141692857Y-79535714D01*
X141664285Y-79507142D01*
X141607142Y-79478571D01*
X141464285Y-79478571D01*
X141407142Y-79507142D01*
X141378571Y-79535714D01*
X141350000Y-79592857D01*
X141350000Y-79707142D01*
X141378571Y-79764285D01*
X141407142Y-79792857D01*
X141464285Y-79821428D01*
G04 #@! TO.C,PC1*
X123807142Y-123971428D02*
X123807142Y-123371428D01*
X124035714Y-123371428D01*
X124092857Y-123400000D01*
X124121428Y-123428571D01*
X124150000Y-123485714D01*
X124150000Y-123571428D01*
X124121428Y-123628571D01*
X124092857Y-123657142D01*
X124035714Y-123685714D01*
X123807142Y-123685714D01*
X124750000Y-123914285D02*
X124721428Y-123942857D01*
X124635714Y-123971428D01*
X124578571Y-123971428D01*
X124492857Y-123942857D01*
X124435714Y-123885714D01*
X124407142Y-123828571D01*
X124378571Y-123714285D01*
X124378571Y-123628571D01*
X124407142Y-123514285D01*
X124435714Y-123457142D01*
X124492857Y-123400000D01*
X124578571Y-123371428D01*
X124635714Y-123371428D01*
X124721428Y-123400000D01*
X124750000Y-123428571D01*
X125321428Y-123971428D02*
X124978571Y-123971428D01*
X125150000Y-123971428D02*
X125150000Y-123371428D01*
X125092857Y-123457142D01*
X125035714Y-123514285D01*
X124978571Y-123542857D01*
G04 #@! TO.C,C3*
X135014285Y-101300000D02*
X135042857Y-101328571D01*
X135071428Y-101414285D01*
X135071428Y-101471428D01*
X135042857Y-101557142D01*
X134985714Y-101614285D01*
X134928571Y-101642857D01*
X134814285Y-101671428D01*
X134728571Y-101671428D01*
X134614285Y-101642857D01*
X134557142Y-101614285D01*
X134500000Y-101557142D01*
X134471428Y-101471428D01*
X134471428Y-101414285D01*
X134500000Y-101328571D01*
X134528571Y-101300000D01*
X134471428Y-101100000D02*
X134471428Y-100728571D01*
X134700000Y-100928571D01*
X134700000Y-100842857D01*
X134728571Y-100785714D01*
X134757142Y-100757142D01*
X134814285Y-100728571D01*
X134957142Y-100728571D01*
X135014285Y-100757142D01*
X135042857Y-100785714D01*
X135071428Y-100842857D01*
X135071428Y-101014285D01*
X135042857Y-101071428D01*
X135014285Y-101100000D01*
G04 #@! TO.C,U1*
X138871428Y-91357142D02*
X139357142Y-91357142D01*
X139414285Y-91328571D01*
X139442857Y-91300000D01*
X139471428Y-91242857D01*
X139471428Y-91128571D01*
X139442857Y-91071428D01*
X139414285Y-91042857D01*
X139357142Y-91014285D01*
X138871428Y-91014285D01*
X139471428Y-90414285D02*
X139471428Y-90757142D01*
X139471428Y-90585714D02*
X138871428Y-90585714D01*
X138957142Y-90642857D01*
X139014285Y-90700000D01*
X139042857Y-90757142D01*
G04 #@! TO.C,J2*
X128571428Y-107850000D02*
X129000000Y-107850000D01*
X129085714Y-107878571D01*
X129142857Y-107935714D01*
X129171428Y-108021428D01*
X129171428Y-108078571D01*
X128628571Y-107592857D02*
X128600000Y-107564285D01*
X128571428Y-107507142D01*
X128571428Y-107364285D01*
X128600000Y-107307142D01*
X128628571Y-107278571D01*
X128685714Y-107250000D01*
X128742857Y-107250000D01*
X128828571Y-107278571D01*
X129171428Y-107621428D01*
X129171428Y-107250000D01*
G04 #@! TO.C,R7*
X149550000Y-103446428D02*
X149350000Y-103160714D01*
X149207142Y-103446428D02*
X149207142Y-102846428D01*
X149435714Y-102846428D01*
X149492857Y-102875000D01*
X149521428Y-102903571D01*
X149550000Y-102960714D01*
X149550000Y-103046428D01*
X149521428Y-103103571D01*
X149492857Y-103132142D01*
X149435714Y-103160714D01*
X149207142Y-103160714D01*
X149750000Y-102846428D02*
X150150000Y-102846428D01*
X149892857Y-103446428D01*
G04 #@! TO.C,Q1*
X125862857Y-82498571D02*
X125805714Y-82470000D01*
X125748571Y-82412857D01*
X125662857Y-82327142D01*
X125605714Y-82298571D01*
X125548571Y-82298571D01*
X125577142Y-82441428D02*
X125520000Y-82412857D01*
X125462857Y-82355714D01*
X125434285Y-82241428D01*
X125434285Y-82041428D01*
X125462857Y-81927142D01*
X125520000Y-81870000D01*
X125577142Y-81841428D01*
X125691428Y-81841428D01*
X125748571Y-81870000D01*
X125805714Y-81927142D01*
X125834285Y-82041428D01*
X125834285Y-82241428D01*
X125805714Y-82355714D01*
X125748571Y-82412857D01*
X125691428Y-82441428D01*
X125577142Y-82441428D01*
X126405714Y-82441428D02*
X126062857Y-82441428D01*
X126234285Y-82441428D02*
X126234285Y-81841428D01*
X126177142Y-81927142D01*
X126120000Y-81984285D01*
X126062857Y-82012857D01*
G04 #@! TO.C,C1*
X135001785Y-104300000D02*
X135030357Y-104328571D01*
X135058928Y-104414285D01*
X135058928Y-104471428D01*
X135030357Y-104557142D01*
X134973214Y-104614285D01*
X134916071Y-104642857D01*
X134801785Y-104671428D01*
X134716071Y-104671428D01*
X134601785Y-104642857D01*
X134544642Y-104614285D01*
X134487500Y-104557142D01*
X134458928Y-104471428D01*
X134458928Y-104414285D01*
X134487500Y-104328571D01*
X134516071Y-104300000D01*
X135058928Y-103728571D02*
X135058928Y-104071428D01*
X135058928Y-103900000D02*
X134458928Y-103900000D01*
X134544642Y-103957142D01*
X134601785Y-104014285D01*
X134630357Y-104071428D01*
G04 #@! TO.C,R3*
X142100000Y-77671428D02*
X141900000Y-77385714D01*
X141757142Y-77671428D02*
X141757142Y-77071428D01*
X141985714Y-77071428D01*
X142042857Y-77100000D01*
X142071428Y-77128571D01*
X142100000Y-77185714D01*
X142100000Y-77271428D01*
X142071428Y-77328571D01*
X142042857Y-77357142D01*
X141985714Y-77385714D01*
X141757142Y-77385714D01*
X142300000Y-77071428D02*
X142671428Y-77071428D01*
X142471428Y-77300000D01*
X142557142Y-77300000D01*
X142614285Y-77328571D01*
X142642857Y-77357142D01*
X142671428Y-77414285D01*
X142671428Y-77557142D01*
X142642857Y-77614285D01*
X142614285Y-77642857D01*
X142557142Y-77671428D01*
X142385714Y-77671428D01*
X142328571Y-77642857D01*
X142300000Y-77614285D01*
G04 #@! TO.C,Q2*
X153492857Y-89453571D02*
X153435714Y-89425000D01*
X153378571Y-89367857D01*
X153292857Y-89282142D01*
X153235714Y-89253571D01*
X153178571Y-89253571D01*
X153207142Y-89396428D02*
X153150000Y-89367857D01*
X153092857Y-89310714D01*
X153064285Y-89196428D01*
X153064285Y-88996428D01*
X153092857Y-88882142D01*
X153150000Y-88825000D01*
X153207142Y-88796428D01*
X153321428Y-88796428D01*
X153378571Y-88825000D01*
X153435714Y-88882142D01*
X153464285Y-88996428D01*
X153464285Y-89196428D01*
X153435714Y-89310714D01*
X153378571Y-89367857D01*
X153321428Y-89396428D01*
X153207142Y-89396428D01*
X153692857Y-88853571D02*
X153721428Y-88825000D01*
X153778571Y-88796428D01*
X153921428Y-88796428D01*
X153978571Y-88825000D01*
X154007142Y-88853571D01*
X154035714Y-88910714D01*
X154035714Y-88967857D01*
X154007142Y-89053571D01*
X153664285Y-89396428D01*
X154035714Y-89396428D01*
G04 #@! TO.C,LED2*
X136492857Y-74471428D02*
X136835714Y-74471428D01*
X136664285Y-75071428D02*
X136664285Y-74471428D01*
X137035714Y-75071428D02*
X137035714Y-74471428D01*
X137264285Y-74471428D01*
X137321428Y-74500000D01*
X137350000Y-74528571D01*
X137378571Y-74585714D01*
X137378571Y-74671428D01*
X137350000Y-74728571D01*
X137321428Y-74757142D01*
X137264285Y-74785714D01*
X137035714Y-74785714D01*
X137950000Y-75071428D02*
X137607142Y-75071428D01*
X137778571Y-75071428D02*
X137778571Y-74471428D01*
X137721428Y-74557142D01*
X137664285Y-74614285D01*
X137607142Y-74642857D01*
G04 #@! TO.C,R2*
X138200000Y-77671428D02*
X138000000Y-77385714D01*
X137857142Y-77671428D02*
X137857142Y-77071428D01*
X138085714Y-77071428D01*
X138142857Y-77100000D01*
X138171428Y-77128571D01*
X138200000Y-77185714D01*
X138200000Y-77271428D01*
X138171428Y-77328571D01*
X138142857Y-77357142D01*
X138085714Y-77385714D01*
X137857142Y-77385714D01*
X138428571Y-77128571D02*
X138457142Y-77100000D01*
X138514285Y-77071428D01*
X138657142Y-77071428D01*
X138714285Y-77100000D01*
X138742857Y-77128571D01*
X138771428Y-77185714D01*
X138771428Y-77242857D01*
X138742857Y-77328571D01*
X138400000Y-77671428D01*
X138771428Y-77671428D01*
G04 #@! TO.C,C5*
X146400000Y-102339285D02*
X146371428Y-102367857D01*
X146285714Y-102396428D01*
X146228571Y-102396428D01*
X146142857Y-102367857D01*
X146085714Y-102310714D01*
X146057142Y-102253571D01*
X146028571Y-102139285D01*
X146028571Y-102053571D01*
X146057142Y-101939285D01*
X146085714Y-101882142D01*
X146142857Y-101825000D01*
X146228571Y-101796428D01*
X146285714Y-101796428D01*
X146371428Y-101825000D01*
X146400000Y-101853571D01*
X146942857Y-101796428D02*
X146657142Y-101796428D01*
X146628571Y-102082142D01*
X146657142Y-102053571D01*
X146714285Y-102025000D01*
X146857142Y-102025000D01*
X146914285Y-102053571D01*
X146942857Y-102082142D01*
X146971428Y-102139285D01*
X146971428Y-102282142D01*
X146942857Y-102339285D01*
X146914285Y-102367857D01*
X146857142Y-102396428D01*
X146714285Y-102396428D01*
X146657142Y-102367857D01*
X146628571Y-102339285D01*
G04 #@! TO.C,BAT1*
X146071428Y-110082142D02*
X146157142Y-110110714D01*
X146185714Y-110139285D01*
X146214285Y-110196428D01*
X146214285Y-110282142D01*
X146185714Y-110339285D01*
X146157142Y-110367857D01*
X146100000Y-110396428D01*
X145871428Y-110396428D01*
X145871428Y-109796428D01*
X146071428Y-109796428D01*
X146128571Y-109825000D01*
X146157142Y-109853571D01*
X146185714Y-109910714D01*
X146185714Y-109967857D01*
X146157142Y-110025000D01*
X146128571Y-110053571D01*
X146071428Y-110082142D01*
X145871428Y-110082142D01*
X146442857Y-110225000D02*
X146728571Y-110225000D01*
X146385714Y-110396428D02*
X146585714Y-109796428D01*
X146785714Y-110396428D01*
X146900000Y-109796428D02*
X147242857Y-109796428D01*
X147071428Y-110396428D02*
X147071428Y-109796428D01*
X147757142Y-110396428D02*
X147414285Y-110396428D01*
X147585714Y-110396428D02*
X147585714Y-109796428D01*
X147528571Y-109882142D01*
X147471428Y-109939285D01*
X147414285Y-109967857D01*
D15*
X148217334Y-107096749D02*
X148982665Y-107096749D01*
X148600000Y-107479414D02*
X148600000Y-106714084D01*
G04 #@! TO.C,R1*
D14*
X134165000Y-77671428D02*
X133965000Y-77385714D01*
X133822142Y-77671428D02*
X133822142Y-77071428D01*
X134050714Y-77071428D01*
X134107857Y-77100000D01*
X134136428Y-77128571D01*
X134165000Y-77185714D01*
X134165000Y-77271428D01*
X134136428Y-77328571D01*
X134107857Y-77357142D01*
X134050714Y-77385714D01*
X133822142Y-77385714D01*
X134736428Y-77671428D02*
X134393571Y-77671428D01*
X134565000Y-77671428D02*
X134565000Y-77071428D01*
X134507857Y-77157142D01*
X134450714Y-77214285D01*
X134393571Y-77242857D01*
G04 #@! TO.C,R5*
X137771428Y-79650000D02*
X137485714Y-79850000D01*
X137771428Y-79992857D02*
X137171428Y-79992857D01*
X137171428Y-79764285D01*
X137200000Y-79707142D01*
X137228571Y-79678571D01*
X137285714Y-79650000D01*
X137371428Y-79650000D01*
X137428571Y-79678571D01*
X137457142Y-79707142D01*
X137485714Y-79764285D01*
X137485714Y-79992857D01*
X137171428Y-79107142D02*
X137171428Y-79392857D01*
X137457142Y-79421428D01*
X137428571Y-79392857D01*
X137400000Y-79335714D01*
X137400000Y-79192857D01*
X137428571Y-79135714D01*
X137457142Y-79107142D01*
X137514285Y-79078571D01*
X137657142Y-79078571D01*
X137714285Y-79107142D01*
X137742857Y-79135714D01*
X137771428Y-79192857D01*
X137771428Y-79335714D01*
X137742857Y-79392857D01*
X137714285Y-79421428D01*
G04 #@! TO.C,LED1*
X132387500Y-75071428D02*
X132387500Y-74471428D01*
X132616071Y-74471428D01*
X132673214Y-74500000D01*
X132701785Y-74528571D01*
X132730357Y-74585714D01*
X132730357Y-74671428D01*
X132701785Y-74728571D01*
X132673214Y-74757142D01*
X132616071Y-74785714D01*
X132387500Y-74785714D01*
X132930357Y-74471428D02*
X133073214Y-75071428D01*
X133187500Y-74642857D01*
X133301785Y-75071428D01*
X133444642Y-74471428D01*
X134016071Y-75071428D02*
X133816071Y-74785714D01*
X133673214Y-75071428D02*
X133673214Y-74471428D01*
X133901785Y-74471428D01*
X133958928Y-74500000D01*
X133987500Y-74528571D01*
X134016071Y-74585714D01*
X134016071Y-74671428D01*
X133987500Y-74728571D01*
X133958928Y-74757142D01*
X133901785Y-74785714D01*
X133673214Y-74785714D01*
G04 #@! TO.C,C4*
X146390000Y-103389285D02*
X146361428Y-103417857D01*
X146275714Y-103446428D01*
X146218571Y-103446428D01*
X146132857Y-103417857D01*
X146075714Y-103360714D01*
X146047142Y-103303571D01*
X146018571Y-103189285D01*
X146018571Y-103103571D01*
X146047142Y-102989285D01*
X146075714Y-102932142D01*
X146132857Y-102875000D01*
X146218571Y-102846428D01*
X146275714Y-102846428D01*
X146361428Y-102875000D01*
X146390000Y-102903571D01*
X146904285Y-103046428D02*
X146904285Y-103446428D01*
X146761428Y-102817857D02*
X146618571Y-103246428D01*
X146990000Y-103246428D01*
G04 #@! TO.C,J1*
X146400000Y-76421428D02*
X146400000Y-76850000D01*
X146371428Y-76935714D01*
X146314285Y-76992857D01*
X146228571Y-77021428D01*
X146171428Y-77021428D01*
X147000000Y-77021428D02*
X146657142Y-77021428D01*
X146828571Y-77021428D02*
X146828571Y-76421428D01*
X146771428Y-76507142D01*
X146714285Y-76564285D01*
X146657142Y-76592857D01*
X145914285Y-74900000D02*
X146200000Y-74900000D01*
X145857142Y-75071428D02*
X146057142Y-74471428D01*
X146257142Y-75071428D01*
X146457142Y-75071428D02*
X146457142Y-74471428D01*
X146800000Y-75071428D01*
X146800000Y-74471428D01*
X147000000Y-74471428D02*
X147342857Y-74471428D01*
X147171428Y-75071428D02*
X147171428Y-74471428D01*
G04 #@! TO.C,LED3*
X140442857Y-74471428D02*
X140785714Y-74471428D01*
X140614285Y-75071428D02*
X140614285Y-74471428D01*
X140985714Y-75071428D02*
X140985714Y-74471428D01*
X141214285Y-74471428D01*
X141271428Y-74500000D01*
X141300000Y-74528571D01*
X141328571Y-74585714D01*
X141328571Y-74671428D01*
X141300000Y-74728571D01*
X141271428Y-74757142D01*
X141214285Y-74785714D01*
X140985714Y-74785714D01*
X141557142Y-74528571D02*
X141585714Y-74500000D01*
X141642857Y-74471428D01*
X141785714Y-74471428D01*
X141842857Y-74500000D01*
X141871428Y-74528571D01*
X141900000Y-74585714D01*
X141900000Y-74642857D01*
X141871428Y-74728571D01*
X141528571Y-75071428D01*
X141900000Y-75071428D01*
G04 #@! TO.C,R4*
X137771428Y-80750000D02*
X137485714Y-80950000D01*
X137771428Y-81092857D02*
X137171428Y-81092857D01*
X137171428Y-80864285D01*
X137200000Y-80807142D01*
X137228571Y-80778571D01*
X137285714Y-80750000D01*
X137371428Y-80750000D01*
X137428571Y-80778571D01*
X137457142Y-80807142D01*
X137485714Y-80864285D01*
X137485714Y-81092857D01*
X137371428Y-80235714D02*
X137771428Y-80235714D01*
X137142857Y-80378571D02*
X137571428Y-80521428D01*
X137571428Y-80150000D01*
G04 #@! TO.C,D1*
X150832142Y-103846428D02*
X150832142Y-103246428D01*
X150975000Y-103246428D01*
X151060714Y-103275000D01*
X151117857Y-103332142D01*
X151146428Y-103389285D01*
X151175000Y-103503571D01*
X151175000Y-103589285D01*
X151146428Y-103703571D01*
X151117857Y-103760714D01*
X151060714Y-103817857D01*
X150975000Y-103846428D01*
X150832142Y-103846428D01*
X151746428Y-103846428D02*
X151403571Y-103846428D01*
X151575000Y-103846428D02*
X151575000Y-103246428D01*
X151517857Y-103332142D01*
X151460714Y-103389285D01*
X151403571Y-103417857D01*
G04 #@! TO.C,C2*
X135014285Y-102800000D02*
X135042857Y-102828571D01*
X135071428Y-102914285D01*
X135071428Y-102971428D01*
X135042857Y-103057142D01*
X134985714Y-103114285D01*
X134928571Y-103142857D01*
X134814285Y-103171428D01*
X134728571Y-103171428D01*
X134614285Y-103142857D01*
X134557142Y-103114285D01*
X134500000Y-103057142D01*
X134471428Y-102971428D01*
X134471428Y-102914285D01*
X134500000Y-102828571D01*
X134528571Y-102800000D01*
X134528571Y-102571428D02*
X134500000Y-102542857D01*
X134471428Y-102485714D01*
X134471428Y-102342857D01*
X134500000Y-102285714D01*
X134528571Y-102257142D01*
X134585714Y-102228571D01*
X134642857Y-102228571D01*
X134728571Y-102257142D01*
X135071428Y-102600000D01*
X135071428Y-102228571D01*
G04 #@! TD*
M02*
