G04 #@! TF.GenerationSoftware,KiCad,Pcbnew,5.1.5+dfsg1-2build2*
G04 #@! TF.CreationDate,2021-01-22T23:18:44+11:00*
G04 #@! TF.ProjectId,mPCIe-LEA-4L,6d504349-652d-44c4-9541-2d344c2e6b69,1*
G04 #@! TF.SameCoordinates,Original*
G04 #@! TF.FileFunction,Soldermask,Bot*
G04 #@! TF.FilePolarity,Negative*
%FSLAX46Y46*%
G04 Gerber Fmt 4.6, Leading zero omitted, Abs format (unit mm)*
G04 Created by KiCad (PCBNEW 5.1.5+dfsg1-2build2) date 2021-01-22 23:18:44*
%MOMM*%
%LPD*%
G04 APERTURE LIST*
G04 #@! TA.AperFunction,Profile*
%ADD10C,0.050000*%
G04 #@! TD*
%ADD11C,0.350000*%
%ADD12R,0.600000X2.350000*%
G04 APERTURE END LIST*
D10*
G04 #@! TO.C,PC1*
X136900000Y-125000000D02*
X136900000Y-121750000D01*
X127200000Y-125000000D02*
X127200000Y-122500000D01*
X125000000Y-121700000D02*
X126400000Y-121700000D01*
X152800000Y-125000000D02*
X152800000Y-122500000D01*
X153600000Y-121700000D02*
X155000000Y-121700000D01*
X135400000Y-125000000D02*
X127200000Y-125000000D01*
X125000000Y-74050000D02*
X155000000Y-74050000D01*
X155000000Y-121700000D02*
X155000000Y-74050000D01*
X125000000Y-121700000D02*
X125000000Y-74050000D01*
X136900000Y-125000000D02*
X152800000Y-125000000D01*
X135400000Y-125000000D02*
X135400000Y-121750000D01*
X153600000Y-121700000D02*
G75*
G03X152800000Y-122500000I0J-800000D01*
G01*
X126400000Y-121700000D02*
G75*
G02X127200000Y-122500000I0J-800000D01*
G01*
X135400000Y-121750000D02*
G75*
G02X136900000Y-121750000I750000J0D01*
G01*
G04 #@! TD*
D11*
G04 #@! TO.C,PC1*
G36*
X155004877Y-74025480D02*
G01*
X155009567Y-74026903D01*
X155013889Y-74029213D01*
X155017678Y-74032322D01*
X155020787Y-74036111D01*
X155023097Y-74040433D01*
X155024520Y-74045123D01*
X155025000Y-74050000D01*
X155025000Y-79850000D01*
X155024520Y-79854877D01*
X155023097Y-79859567D01*
X155020787Y-79863889D01*
X155017678Y-79867678D01*
X155013889Y-79870787D01*
X155009567Y-79873097D01*
X155004877Y-79874520D01*
X155000000Y-79875000D01*
X149200000Y-79875000D01*
X149195123Y-79874520D01*
X149190433Y-79873097D01*
X149186111Y-79870787D01*
X149182322Y-79867678D01*
X149179213Y-79863889D01*
X149176903Y-79859567D01*
X149175480Y-79854877D01*
X149175000Y-79850000D01*
X149175000Y-74050000D01*
X149175480Y-74045123D01*
X149176903Y-74040433D01*
X149179213Y-74036111D01*
X149182322Y-74032322D01*
X149186111Y-74029213D01*
X149190433Y-74026903D01*
X149195123Y-74025480D01*
X149200000Y-74025000D01*
X155000000Y-74025000D01*
X155004877Y-74025480D01*
G37*
G36*
X130804877Y-74025480D02*
G01*
X130809567Y-74026903D01*
X130813889Y-74029213D01*
X130817678Y-74032322D01*
X130820787Y-74036111D01*
X130823097Y-74040433D01*
X130824520Y-74045123D01*
X130825000Y-74050000D01*
X130825000Y-79850000D01*
X130824520Y-79854877D01*
X130823097Y-79859567D01*
X130820787Y-79863889D01*
X130817678Y-79867678D01*
X130813889Y-79870787D01*
X130809567Y-79873097D01*
X130804877Y-79874520D01*
X130800000Y-79875000D01*
X125000000Y-79875000D01*
X124995123Y-79874520D01*
X124990433Y-79873097D01*
X124986111Y-79870787D01*
X124982322Y-79867678D01*
X124979213Y-79863889D01*
X124976903Y-79859567D01*
X124975480Y-79854877D01*
X124975000Y-79850000D01*
X124975000Y-74050000D01*
X124975480Y-74045123D01*
X124976903Y-74040433D01*
X124979213Y-74036111D01*
X124982322Y-74032322D01*
X124986111Y-74029213D01*
X124990433Y-74026903D01*
X124995123Y-74025480D01*
X125000000Y-74025000D01*
X130800000Y-74025000D01*
X130804877Y-74025480D01*
G37*
D12*
X128600000Y-123625000D03*
X129400000Y-123625000D03*
X130200000Y-123625000D03*
X131000000Y-123625000D03*
X131800000Y-123625000D03*
X132600000Y-123625000D03*
X133400000Y-123625000D03*
X134200000Y-123625000D03*
X151800000Y-123625000D03*
X151000000Y-123625000D03*
X150200000Y-123625000D03*
X149400000Y-123625000D03*
X148600000Y-123625000D03*
X147800000Y-123625000D03*
X147000000Y-123625000D03*
X146200000Y-123625000D03*
X145400000Y-123625000D03*
X144600000Y-123625000D03*
X143800000Y-123625000D03*
X143000000Y-123625000D03*
X142200000Y-123625000D03*
X141400000Y-123625000D03*
X140600000Y-123625000D03*
X139800000Y-123625000D03*
X139000000Y-123625000D03*
X138200000Y-123625000D03*
G04 #@! TD*
M02*
