M48
; DRILL file {KiCad 5.1.5+dfsg1-2build2} date Fri Jan 22 23:18:45 2021
; FORMAT={-:-/ absolute / metric / decimal}
; #@! TF.CreationDate,2021-01-22T23:18:45+11:00
; #@! TF.GenerationSoftware,Kicad,Pcbnew,5.1.5+dfsg1-2build2
FMAT,2
METRIC
T1C0.200
T2C0.250
T3C0.300
T4C0.350
T5C0.400
T6C2.600
%
G90
G05
T1
X127.25Y-85.05
X137.25Y-78.3
X138.2Y-79.798
X138.2Y-80.402
X139.8Y-105.0
X143.05Y-77.4
X153.05Y-85.675
T2
X135.0Y-76.05
X139.05Y-76.05
X143.0Y-76.05
X145.3Y-78.55
X145.5Y-79.35
X145.5Y-80.2
X145.5Y-81.0
X147.7Y-79.35
X147.7Y-80.2
X147.7Y-81.0
X147.9Y-78.55
T3
X128.6Y-121.15
X131.3Y-103.95
X132.6Y-110.15
X135.1Y-83.9
X135.95Y-105.425
X136.2Y-97.9
X137.525Y-105.425
X140.15Y-101.25
X140.6Y-121.15
X142.175Y-101.25
X147.0Y-121.15
X151.3Y-107.125
X151.8Y-121.15
T4
X126.0Y-81.0
X126.0Y-118.9
X154.0Y-81.0
X154.0Y-118.9
T5
X128.6Y-84.65
X128.6Y-88.65
X128.6Y-92.65
X128.6Y-96.65
X132.19Y-84.65
X132.2Y-88.65
X132.2Y-92.65
X132.2Y-96.65
X135.8Y-84.65
X135.8Y-88.65
X135.8Y-92.65
X135.8Y-96.65
X139.4Y-96.65
X139.45Y-84.65
X139.45Y-88.65
X139.45Y-92.65
X143.0Y-84.65
X143.0Y-88.65
X143.0Y-92.65
X143.0Y-96.65
X146.6Y-88.65
X146.6Y-92.65
X146.6Y-96.65
X146.61Y-84.65
X150.2Y-84.65
X150.2Y-88.65
X150.2Y-92.65
X150.2Y-96.65
T6
X127.9Y-76.95
X152.1Y-76.95
T0
M30
