G04 #@! TF.GenerationSoftware,KiCad,Pcbnew,5.1.5+dfsg1-2build2*
G04 #@! TF.CreationDate,2021-01-22T23:18:45+11:00*
G04 #@! TF.ProjectId,mPCIe-LEA-4L,6d504349-652d-44c4-9541-2d344c2e6b69,1*
G04 #@! TF.SameCoordinates,Original*
G04 #@! TF.FileFunction,Copper,L2,Inr*
G04 #@! TF.FilePolarity,Positive*
%FSLAX46Y46*%
G04 Gerber Fmt 4.6, Leading zero omitted, Abs format (unit mm)*
G04 Created by KiCad (PCBNEW 5.1.5+dfsg1-2build2) date 2021-01-22 23:18:45*
%MOMM*%
%LPD*%
G04 APERTURE LIST*
G04 #@! TA.AperFunction,EtchedComponent*
%ADD10C,0.050000*%
G04 #@! TD*
G04 #@! TA.AperFunction,ViaPad*
%ADD11C,0.350000*%
G04 #@! TD*
G04 #@! TA.AperFunction,ViaPad*
%ADD12C,0.600000*%
G04 #@! TD*
G04 #@! TA.AperFunction,ViaPad*
%ADD13C,0.800000*%
G04 #@! TD*
G04 #@! TA.AperFunction,ViaPad*
%ADD14C,0.700000*%
G04 #@! TD*
G04 #@! TA.AperFunction,ViaPad*
%ADD15C,0.500000*%
G04 #@! TD*
G04 #@! TA.AperFunction,ViaPad*
%ADD16C,0.450000*%
G04 #@! TD*
G04 #@! TA.AperFunction,Conductor*
%ADD17C,0.127000*%
G04 #@! TD*
G04 APERTURE END LIST*
D10*
G04 #@! TO.C,PC1*
X136900000Y-125000000D02*
X136900000Y-121750000D01*
X127200000Y-125000000D02*
X127200000Y-122500000D01*
X125000000Y-121700000D02*
X126400000Y-121700000D01*
X152800000Y-125000000D02*
X152800000Y-122500000D01*
X153600000Y-121700000D02*
X155000000Y-121700000D01*
X135400000Y-125000000D02*
X127200000Y-125000000D01*
X125000000Y-74050000D02*
X155000000Y-74050000D01*
X155000000Y-121700000D02*
X155000000Y-74050000D01*
X125000000Y-121700000D02*
X125000000Y-74050000D01*
X136900000Y-125000000D02*
X152800000Y-125000000D01*
X135400000Y-125000000D02*
X135400000Y-121750000D01*
X153600000Y-121700000D02*
G75*
G03X152800000Y-122500000I0J-800000D01*
G01*
X126400000Y-121700000D02*
G75*
G02X127200000Y-122500000I0J-800000D01*
G01*
X135400000Y-121750000D02*
G75*
G02X136900000Y-121750000I750000J0D01*
G01*
G04 #@! TD*
G04 #@! TA.AperFunction,ViaPad*
D11*
G04 #@! TO.N,GND*
G04 #@! TO.C,PC1*
G36*
X155004877Y-74025480D02*
G01*
X155009567Y-74026903D01*
X155013889Y-74029213D01*
X155017678Y-74032322D01*
X155020787Y-74036111D01*
X155023097Y-74040433D01*
X155024520Y-74045123D01*
X155025000Y-74050000D01*
X155025000Y-79850000D01*
X155024520Y-79854877D01*
X155023097Y-79859567D01*
X155020787Y-79863889D01*
X155017678Y-79867678D01*
X155013889Y-79870787D01*
X155009567Y-79873097D01*
X155004877Y-79874520D01*
X155000000Y-79875000D01*
X149200000Y-79875000D01*
X149195123Y-79874520D01*
X149190433Y-79873097D01*
X149186111Y-79870787D01*
X149182322Y-79867678D01*
X149179213Y-79863889D01*
X149176903Y-79859567D01*
X149175480Y-79854877D01*
X149175000Y-79850000D01*
X149175000Y-74050000D01*
X149175480Y-74045123D01*
X149176903Y-74040433D01*
X149179213Y-74036111D01*
X149182322Y-74032322D01*
X149186111Y-74029213D01*
X149190433Y-74026903D01*
X149195123Y-74025480D01*
X149200000Y-74025000D01*
X155000000Y-74025000D01*
X155004877Y-74025480D01*
G37*
G04 #@! TD.AperFunction*
G04 #@! TA.AperFunction,ViaPad*
G36*
X130804877Y-74025480D02*
G01*
X130809567Y-74026903D01*
X130813889Y-74029213D01*
X130817678Y-74032322D01*
X130820787Y-74036111D01*
X130823097Y-74040433D01*
X130824520Y-74045123D01*
X130825000Y-74050000D01*
X130825000Y-79850000D01*
X130824520Y-79854877D01*
X130823097Y-79859567D01*
X130820787Y-79863889D01*
X130817678Y-79867678D01*
X130813889Y-79870787D01*
X130809567Y-79873097D01*
X130804877Y-79874520D01*
X130800000Y-79875000D01*
X125000000Y-79875000D01*
X124995123Y-79874520D01*
X124990433Y-79873097D01*
X124986111Y-79870787D01*
X124982322Y-79867678D01*
X124979213Y-79863889D01*
X124976903Y-79859567D01*
X124975480Y-79854877D01*
X124975000Y-79850000D01*
X124975000Y-74050000D01*
X124975480Y-74045123D01*
X124976903Y-74040433D01*
X124979213Y-74036111D01*
X124982322Y-74032322D01*
X124986111Y-74029213D01*
X124990433Y-74026903D01*
X124995123Y-74025480D01*
X125000000Y-74025000D01*
X130800000Y-74025000D01*
X130804877Y-74025480D01*
G37*
G04 #@! TD.AperFunction*
G04 #@! TD*
D12*
G04 #@! TO.N,GND*
X131300000Y-103950000D03*
X145500000Y-80200000D03*
D13*
X132200000Y-96650000D03*
X128600000Y-96650000D03*
X135800000Y-84650000D03*
D12*
X145500000Y-79350000D03*
X147700000Y-79350000D03*
D13*
X132190000Y-84650000D03*
X135800000Y-96650000D03*
X135800000Y-92650000D03*
X135800000Y-88650000D03*
X128600000Y-84650000D03*
X132200000Y-92650000D03*
X132200000Y-88650000D03*
D12*
X147700000Y-80200000D03*
D13*
X128600000Y-88650000D03*
X128600000Y-92650000D03*
X150200000Y-88650000D03*
X143000000Y-88650000D03*
X126000000Y-118900000D03*
X146600000Y-88650000D03*
X146600000Y-96650000D03*
X139400000Y-96650000D03*
X150200000Y-92650000D03*
X150200000Y-96650000D03*
X146600000Y-92650000D03*
X143000000Y-92650000D03*
X146610000Y-84650000D03*
X154000000Y-118900000D03*
X143000000Y-84650000D03*
X150200000Y-84650000D03*
D12*
X147900000Y-78550000D03*
X145300000Y-78550000D03*
X147700000Y-81000000D03*
X145500000Y-81000000D03*
D13*
X143000000Y-96650000D03*
X139450000Y-88650000D03*
X139450000Y-92650000D03*
X139450000Y-84650000D03*
X154000000Y-81000000D03*
X126000000Y-81000000D03*
D14*
X137525000Y-105425000D03*
D12*
X142175000Y-101250000D03*
X140150000Y-101250000D03*
D14*
G04 #@! TO.N,+3.3V*
X147000000Y-121150000D03*
D12*
X151300000Y-107125000D03*
D14*
X140600000Y-121150000D03*
X128600000Y-121150000D03*
X151800000Y-121150000D03*
D15*
X135000000Y-76050000D03*
X139050000Y-76050000D03*
X143000000Y-76050000D03*
D14*
X132600000Y-110150000D03*
D12*
X135100000Y-83900000D03*
D14*
X136200000Y-97900000D03*
X135950000Y-105425000D03*
D16*
G04 #@! TO.N,/~LED_WLAN*
X153050000Y-85675000D03*
X143050000Y-77400000D03*
G04 #@! TO.N,/~LED_WWAN*
X127250000Y-85050000D03*
X137250000Y-78300000D03*
G04 #@! TO.N,/USB_D+*
X138200000Y-79798000D03*
G04 #@! TO.N,/USB_D-*
X138200000Y-80402000D03*
G04 #@! TO.N,/~RESET*
X139800000Y-105000000D03*
G04 #@! TD*
D17*
G04 #@! TO.N,GND*
G36*
X154784500Y-121484500D02*
G01*
X153589421Y-121484500D01*
X153579870Y-121485441D01*
X153574882Y-121485406D01*
X153571888Y-121485700D01*
X153416611Y-121502021D01*
X153397476Y-121505949D01*
X153378294Y-121509608D01*
X153375413Y-121510477D01*
X153226264Y-121556646D01*
X153208249Y-121564219D01*
X153190147Y-121571532D01*
X153187495Y-121572942D01*
X153187491Y-121572944D01*
X153187490Y-121572945D01*
X153050148Y-121647206D01*
X153033930Y-121658145D01*
X153017613Y-121668823D01*
X153015281Y-121670724D01*
X152894978Y-121770247D01*
X152881205Y-121784116D01*
X152867260Y-121797773D01*
X152865342Y-121800091D01*
X152766662Y-121921085D01*
X152755847Y-121937363D01*
X152744819Y-121953469D01*
X152743392Y-121956108D01*
X152743387Y-121956116D01*
X152743384Y-121956124D01*
X152670088Y-122093973D01*
X152662649Y-122112021D01*
X152654950Y-122129983D01*
X152654064Y-122132848D01*
X152654060Y-122132858D01*
X152654058Y-122132868D01*
X152608934Y-122282327D01*
X152605145Y-122301461D01*
X152601079Y-122320591D01*
X152600766Y-122323575D01*
X152600764Y-122323585D01*
X152600764Y-122323594D01*
X152585529Y-122478971D01*
X152585529Y-122478984D01*
X152584501Y-122489421D01*
X152584500Y-124784500D01*
X137115500Y-124784500D01*
X137115500Y-121739421D01*
X137115427Y-121738675D01*
X137115422Y-121738026D01*
X137114476Y-121729022D01*
X137114399Y-121728243D01*
X137114399Y-121718499D01*
X137114084Y-121715507D01*
X137097768Y-121570045D01*
X137093713Y-121550965D01*
X137089914Y-121531780D01*
X137089024Y-121528906D01*
X137044765Y-121389383D01*
X137037059Y-121371404D01*
X137029627Y-121353373D01*
X137028196Y-121350726D01*
X136957679Y-121222456D01*
X136946640Y-121206334D01*
X136935837Y-121190074D01*
X136933919Y-121187756D01*
X136933917Y-121187753D01*
X136933914Y-121187750D01*
X136857570Y-121096765D01*
X140059500Y-121096765D01*
X140059500Y-121203235D01*
X140080271Y-121307658D01*
X140121015Y-121406023D01*
X140180166Y-121494549D01*
X140255451Y-121569834D01*
X140343977Y-121628985D01*
X140442342Y-121669729D01*
X140546765Y-121690500D01*
X140653235Y-121690500D01*
X140757658Y-121669729D01*
X140856023Y-121628985D01*
X140944549Y-121569834D01*
X141019834Y-121494549D01*
X141078985Y-121406023D01*
X141119729Y-121307658D01*
X141140500Y-121203235D01*
X141140500Y-121096765D01*
X146459500Y-121096765D01*
X146459500Y-121203235D01*
X146480271Y-121307658D01*
X146521015Y-121406023D01*
X146580166Y-121494549D01*
X146655451Y-121569834D01*
X146743977Y-121628985D01*
X146842342Y-121669729D01*
X146946765Y-121690500D01*
X147053235Y-121690500D01*
X147157658Y-121669729D01*
X147256023Y-121628985D01*
X147344549Y-121569834D01*
X147419834Y-121494549D01*
X147478985Y-121406023D01*
X147519729Y-121307658D01*
X147540500Y-121203235D01*
X147540500Y-121096765D01*
X151259500Y-121096765D01*
X151259500Y-121203235D01*
X151280271Y-121307658D01*
X151321015Y-121406023D01*
X151380166Y-121494549D01*
X151455451Y-121569834D01*
X151543977Y-121628985D01*
X151642342Y-121669729D01*
X151746765Y-121690500D01*
X151853235Y-121690500D01*
X151957658Y-121669729D01*
X152056023Y-121628985D01*
X152144549Y-121569834D01*
X152219834Y-121494549D01*
X152278985Y-121406023D01*
X152319729Y-121307658D01*
X152340500Y-121203235D01*
X152340500Y-121096765D01*
X152319729Y-120992342D01*
X152278985Y-120893977D01*
X152219834Y-120805451D01*
X152144549Y-120730166D01*
X152056023Y-120671015D01*
X151957658Y-120630271D01*
X151853235Y-120609500D01*
X151746765Y-120609500D01*
X151642342Y-120630271D01*
X151543977Y-120671015D01*
X151455451Y-120730166D01*
X151380166Y-120805451D01*
X151321015Y-120893977D01*
X151280271Y-120992342D01*
X151259500Y-121096765D01*
X147540500Y-121096765D01*
X147519729Y-120992342D01*
X147478985Y-120893977D01*
X147419834Y-120805451D01*
X147344549Y-120730166D01*
X147256023Y-120671015D01*
X147157658Y-120630271D01*
X147053235Y-120609500D01*
X146946765Y-120609500D01*
X146842342Y-120630271D01*
X146743977Y-120671015D01*
X146655451Y-120730166D01*
X146580166Y-120805451D01*
X146521015Y-120893977D01*
X146480271Y-120992342D01*
X146459500Y-121096765D01*
X141140500Y-121096765D01*
X141119729Y-120992342D01*
X141078985Y-120893977D01*
X141019834Y-120805451D01*
X140944549Y-120730166D01*
X140856023Y-120671015D01*
X140757658Y-120630271D01*
X140653235Y-120609500D01*
X140546765Y-120609500D01*
X140442342Y-120630271D01*
X140343977Y-120671015D01*
X140255451Y-120730166D01*
X140180166Y-120805451D01*
X140121015Y-120893977D01*
X140080271Y-120992342D01*
X140059500Y-121096765D01*
X136857570Y-121096765D01*
X136839831Y-121075625D01*
X136825866Y-121061949D01*
X136812112Y-121048099D01*
X136809786Y-121046202D01*
X136809782Y-121046198D01*
X136809778Y-121046195D01*
X136695704Y-120954479D01*
X136679371Y-120943791D01*
X136663170Y-120932863D01*
X136660513Y-120931450D01*
X136530796Y-120863635D01*
X136512683Y-120856317D01*
X136494679Y-120848749D01*
X136491803Y-120847881D01*
X136491797Y-120847879D01*
X136351380Y-120806553D01*
X136332197Y-120802894D01*
X136313063Y-120798966D01*
X136310068Y-120798672D01*
X136164296Y-120785405D01*
X136144764Y-120785541D01*
X136125232Y-120785405D01*
X136122248Y-120785698D01*
X136122239Y-120785698D01*
X136122231Y-120785700D01*
X135976665Y-120801000D01*
X135957530Y-120804928D01*
X135938348Y-120808587D01*
X135935467Y-120809456D01*
X135795638Y-120852740D01*
X135777625Y-120860312D01*
X135759523Y-120867626D01*
X135756866Y-120869039D01*
X135628108Y-120938658D01*
X135611926Y-120949573D01*
X135595572Y-120960274D01*
X135593246Y-120962172D01*
X135593240Y-120962176D01*
X135593235Y-120962181D01*
X135480457Y-121055478D01*
X135466687Y-121069344D01*
X135452739Y-121083003D01*
X135450821Y-121085322D01*
X135358309Y-121198754D01*
X135347508Y-121215011D01*
X135336465Y-121231137D01*
X135335034Y-121233784D01*
X135266315Y-121363025D01*
X135258871Y-121381085D01*
X135251177Y-121399037D01*
X135250288Y-121401908D01*
X135250288Y-121401910D01*
X135250287Y-121401912D01*
X135207981Y-121542039D01*
X135204190Y-121561187D01*
X135200127Y-121580301D01*
X135199814Y-121583288D01*
X135199812Y-121583296D01*
X135199812Y-121583304D01*
X135185529Y-121728970D01*
X135185529Y-121728984D01*
X135184501Y-121739421D01*
X135184500Y-124784500D01*
X127415500Y-124784500D01*
X127415500Y-122489421D01*
X127414559Y-122479870D01*
X127414594Y-122474882D01*
X127414300Y-122471888D01*
X127397979Y-122316611D01*
X127394051Y-122297476D01*
X127390392Y-122278294D01*
X127389523Y-122275413D01*
X127343354Y-122126264D01*
X127335781Y-122108249D01*
X127328468Y-122090147D01*
X127327055Y-122087490D01*
X127252794Y-121950148D01*
X127241855Y-121933930D01*
X127231177Y-121917613D01*
X127229276Y-121915281D01*
X127129753Y-121794978D01*
X127115884Y-121781205D01*
X127102227Y-121767260D01*
X127099909Y-121765342D01*
X126978915Y-121666662D01*
X126962637Y-121655847D01*
X126946531Y-121644819D01*
X126943892Y-121643392D01*
X126943884Y-121643387D01*
X126943876Y-121643384D01*
X126806027Y-121570088D01*
X126787979Y-121562649D01*
X126770017Y-121554950D01*
X126767152Y-121554064D01*
X126767142Y-121554060D01*
X126767132Y-121554058D01*
X126617673Y-121508934D01*
X126598539Y-121505145D01*
X126579409Y-121501079D01*
X126576425Y-121500766D01*
X126576415Y-121500764D01*
X126576406Y-121500764D01*
X126421029Y-121485529D01*
X126421026Y-121485529D01*
X126410579Y-121484500D01*
X125215500Y-121484500D01*
X125215500Y-121096765D01*
X128059500Y-121096765D01*
X128059500Y-121203235D01*
X128080271Y-121307658D01*
X128121015Y-121406023D01*
X128180166Y-121494549D01*
X128255451Y-121569834D01*
X128343977Y-121628985D01*
X128442342Y-121669729D01*
X128546765Y-121690500D01*
X128653235Y-121690500D01*
X128757658Y-121669729D01*
X128856023Y-121628985D01*
X128944549Y-121569834D01*
X129019834Y-121494549D01*
X129078985Y-121406023D01*
X129119729Y-121307658D01*
X129140500Y-121203235D01*
X129140500Y-121096765D01*
X129119729Y-120992342D01*
X129078985Y-120893977D01*
X129019834Y-120805451D01*
X128944549Y-120730166D01*
X128856023Y-120671015D01*
X128757658Y-120630271D01*
X128653235Y-120609500D01*
X128546765Y-120609500D01*
X128442342Y-120630271D01*
X128343977Y-120671015D01*
X128255451Y-120730166D01*
X128180166Y-120805451D01*
X128121015Y-120893977D01*
X128080271Y-120992342D01*
X128059500Y-121096765D01*
X125215500Y-121096765D01*
X125215500Y-110096765D01*
X132059500Y-110096765D01*
X132059500Y-110203235D01*
X132080271Y-110307658D01*
X132121015Y-110406023D01*
X132180166Y-110494549D01*
X132255451Y-110569834D01*
X132343977Y-110628985D01*
X132442342Y-110669729D01*
X132546765Y-110690500D01*
X132653235Y-110690500D01*
X132757658Y-110669729D01*
X132856023Y-110628985D01*
X132944549Y-110569834D01*
X133019834Y-110494549D01*
X133078985Y-110406023D01*
X133119729Y-110307658D01*
X133140500Y-110203235D01*
X133140500Y-110096765D01*
X133119729Y-109992342D01*
X133078985Y-109893977D01*
X133019834Y-109805451D01*
X132944549Y-109730166D01*
X132856023Y-109671015D01*
X132757658Y-109630271D01*
X132653235Y-109609500D01*
X132546765Y-109609500D01*
X132442342Y-109630271D01*
X132343977Y-109671015D01*
X132255451Y-109730166D01*
X132180166Y-109805451D01*
X132121015Y-109893977D01*
X132080271Y-109992342D01*
X132059500Y-110096765D01*
X125215500Y-110096765D01*
X125215500Y-107076690D01*
X150809500Y-107076690D01*
X150809500Y-107173310D01*
X150828350Y-107268073D01*
X150865325Y-107357339D01*
X150919004Y-107437675D01*
X150987325Y-107505996D01*
X151067661Y-107559675D01*
X151156927Y-107596650D01*
X151251690Y-107615500D01*
X151348310Y-107615500D01*
X151443073Y-107596650D01*
X151532339Y-107559675D01*
X151612675Y-107505996D01*
X151680996Y-107437675D01*
X151734675Y-107357339D01*
X151771650Y-107268073D01*
X151790500Y-107173310D01*
X151790500Y-107076690D01*
X151771650Y-106981927D01*
X151734675Y-106892661D01*
X151680996Y-106812325D01*
X151612675Y-106744004D01*
X151532339Y-106690325D01*
X151443073Y-106653350D01*
X151348310Y-106634500D01*
X151251690Y-106634500D01*
X151156927Y-106653350D01*
X151067661Y-106690325D01*
X150987325Y-106744004D01*
X150919004Y-106812325D01*
X150865325Y-106892661D01*
X150828350Y-106981927D01*
X150809500Y-107076690D01*
X125215500Y-107076690D01*
X125215500Y-105371765D01*
X135409500Y-105371765D01*
X135409500Y-105478235D01*
X135430271Y-105582658D01*
X135471015Y-105681023D01*
X135530166Y-105769549D01*
X135605451Y-105844834D01*
X135693977Y-105903985D01*
X135792342Y-105944729D01*
X135896765Y-105965500D01*
X136003235Y-105965500D01*
X136107658Y-105944729D01*
X136206023Y-105903985D01*
X136294549Y-105844834D01*
X136369834Y-105769549D01*
X136428985Y-105681023D01*
X136469729Y-105582658D01*
X136490500Y-105478235D01*
X136490500Y-105371765D01*
X136469729Y-105267342D01*
X136428985Y-105168977D01*
X136369834Y-105080451D01*
X136294549Y-105005166D01*
X136225572Y-104959077D01*
X139384500Y-104959077D01*
X139384500Y-105040923D01*
X139400468Y-105121197D01*
X139431789Y-105196813D01*
X139477260Y-105264866D01*
X139535134Y-105322740D01*
X139603187Y-105368211D01*
X139678803Y-105399532D01*
X139759077Y-105415500D01*
X139840923Y-105415500D01*
X139921197Y-105399532D01*
X139996813Y-105368211D01*
X140064866Y-105322740D01*
X140122740Y-105264866D01*
X140168211Y-105196813D01*
X140199532Y-105121197D01*
X140215500Y-105040923D01*
X140215500Y-104959077D01*
X140199532Y-104878803D01*
X140168211Y-104803187D01*
X140122740Y-104735134D01*
X140064866Y-104677260D01*
X139996813Y-104631789D01*
X139921197Y-104600468D01*
X139840923Y-104584500D01*
X139759077Y-104584500D01*
X139678803Y-104600468D01*
X139603187Y-104631789D01*
X139535134Y-104677260D01*
X139477260Y-104735134D01*
X139431789Y-104803187D01*
X139400468Y-104878803D01*
X139384500Y-104959077D01*
X136225572Y-104959077D01*
X136206023Y-104946015D01*
X136107658Y-104905271D01*
X136003235Y-104884500D01*
X135896765Y-104884500D01*
X135792342Y-104905271D01*
X135693977Y-104946015D01*
X135605451Y-105005166D01*
X135530166Y-105080451D01*
X135471015Y-105168977D01*
X135430271Y-105267342D01*
X135409500Y-105371765D01*
X125215500Y-105371765D01*
X125215500Y-97846765D01*
X135659500Y-97846765D01*
X135659500Y-97953235D01*
X135680271Y-98057658D01*
X135721015Y-98156023D01*
X135780166Y-98244549D01*
X135855451Y-98319834D01*
X135943977Y-98378985D01*
X136042342Y-98419729D01*
X136146765Y-98440500D01*
X136253235Y-98440500D01*
X136357658Y-98419729D01*
X136456023Y-98378985D01*
X136544549Y-98319834D01*
X136619834Y-98244549D01*
X136678985Y-98156023D01*
X136719729Y-98057658D01*
X136740500Y-97953235D01*
X136740500Y-97846765D01*
X136719729Y-97742342D01*
X136678985Y-97643977D01*
X136619834Y-97555451D01*
X136544549Y-97480166D01*
X136456023Y-97421015D01*
X136357658Y-97380271D01*
X136253235Y-97359500D01*
X136146765Y-97359500D01*
X136042342Y-97380271D01*
X135943977Y-97421015D01*
X135855451Y-97480166D01*
X135780166Y-97555451D01*
X135721015Y-97643977D01*
X135680271Y-97742342D01*
X135659500Y-97846765D01*
X125215500Y-97846765D01*
X125215500Y-85634077D01*
X152634500Y-85634077D01*
X152634500Y-85715923D01*
X152650468Y-85796197D01*
X152681789Y-85871813D01*
X152727260Y-85939866D01*
X152785134Y-85997740D01*
X152853187Y-86043211D01*
X152928803Y-86074532D01*
X153009077Y-86090500D01*
X153090923Y-86090500D01*
X153171197Y-86074532D01*
X153246813Y-86043211D01*
X153314866Y-85997740D01*
X153372740Y-85939866D01*
X153418211Y-85871813D01*
X153449532Y-85796197D01*
X153465500Y-85715923D01*
X153465500Y-85634077D01*
X153449532Y-85553803D01*
X153418211Y-85478187D01*
X153372740Y-85410134D01*
X153314866Y-85352260D01*
X153246813Y-85306789D01*
X153171197Y-85275468D01*
X153090923Y-85259500D01*
X153009077Y-85259500D01*
X152928803Y-85275468D01*
X152853187Y-85306789D01*
X152785134Y-85352260D01*
X152727260Y-85410134D01*
X152681789Y-85478187D01*
X152650468Y-85553803D01*
X152634500Y-85634077D01*
X125215500Y-85634077D01*
X125215500Y-85009077D01*
X126834500Y-85009077D01*
X126834500Y-85090923D01*
X126850468Y-85171197D01*
X126881789Y-85246813D01*
X126927260Y-85314866D01*
X126985134Y-85372740D01*
X127053187Y-85418211D01*
X127128803Y-85449532D01*
X127209077Y-85465500D01*
X127290923Y-85465500D01*
X127371197Y-85449532D01*
X127446813Y-85418211D01*
X127514866Y-85372740D01*
X127572740Y-85314866D01*
X127618211Y-85246813D01*
X127649532Y-85171197D01*
X127665500Y-85090923D01*
X127665500Y-85009077D01*
X127649532Y-84928803D01*
X127618211Y-84853187D01*
X127572740Y-84785134D01*
X127514866Y-84727260D01*
X127446813Y-84681789D01*
X127371197Y-84650468D01*
X127290923Y-84634500D01*
X127209077Y-84634500D01*
X127128803Y-84650468D01*
X127053187Y-84681789D01*
X126985134Y-84727260D01*
X126927260Y-84785134D01*
X126881789Y-84853187D01*
X126850468Y-84928803D01*
X126834500Y-85009077D01*
X125215500Y-85009077D01*
X125215500Y-83851690D01*
X134609500Y-83851690D01*
X134609500Y-83948310D01*
X134628350Y-84043073D01*
X134665325Y-84132339D01*
X134719004Y-84212675D01*
X134787325Y-84280996D01*
X134867661Y-84334675D01*
X134956927Y-84371650D01*
X135051690Y-84390500D01*
X135148310Y-84390500D01*
X135243073Y-84371650D01*
X135332339Y-84334675D01*
X135412675Y-84280996D01*
X135480996Y-84212675D01*
X135534675Y-84132339D01*
X135571650Y-84043073D01*
X135590500Y-83948310D01*
X135590500Y-83851690D01*
X135571650Y-83756927D01*
X135534675Y-83667661D01*
X135480996Y-83587325D01*
X135412675Y-83519004D01*
X135332339Y-83465325D01*
X135243073Y-83428350D01*
X135148310Y-83409500D01*
X135051690Y-83409500D01*
X134956927Y-83428350D01*
X134867661Y-83465325D01*
X134787325Y-83519004D01*
X134719004Y-83587325D01*
X134665325Y-83667661D01*
X134628350Y-83756927D01*
X134609500Y-83851690D01*
X125215500Y-83851690D01*
X125215500Y-79754418D01*
X137757500Y-79754418D01*
X137757500Y-79841582D01*
X137774505Y-79927072D01*
X137807862Y-80007602D01*
X137856288Y-80080077D01*
X137876211Y-80100000D01*
X137856288Y-80119923D01*
X137807862Y-80192398D01*
X137774505Y-80272928D01*
X137757500Y-80358418D01*
X137757500Y-80445582D01*
X137774505Y-80531072D01*
X137807862Y-80611602D01*
X137856288Y-80684077D01*
X137917923Y-80745712D01*
X137990398Y-80794138D01*
X138070928Y-80827495D01*
X138156418Y-80844500D01*
X138243582Y-80844500D01*
X138329072Y-80827495D01*
X138409602Y-80794138D01*
X138482077Y-80745712D01*
X138543712Y-80684077D01*
X138592138Y-80611602D01*
X138625495Y-80531072D01*
X138642500Y-80445582D01*
X138642500Y-80358418D01*
X138625495Y-80272928D01*
X138592138Y-80192398D01*
X138543712Y-80119923D01*
X138523789Y-80100000D01*
X138543712Y-80080077D01*
X138592138Y-80007602D01*
X138625495Y-79927072D01*
X138642500Y-79841582D01*
X138642500Y-79754418D01*
X138625495Y-79668928D01*
X138592138Y-79588398D01*
X138543712Y-79515923D01*
X138482077Y-79454288D01*
X138409602Y-79405862D01*
X138329072Y-79372505D01*
X138243582Y-79355500D01*
X138156418Y-79355500D01*
X138070928Y-79372505D01*
X137990398Y-79405862D01*
X137917923Y-79454288D01*
X137856288Y-79515923D01*
X137807862Y-79588398D01*
X137774505Y-79668928D01*
X137757500Y-79754418D01*
X125215500Y-79754418D01*
X125215500Y-78259077D01*
X136834500Y-78259077D01*
X136834500Y-78340923D01*
X136850468Y-78421197D01*
X136881789Y-78496813D01*
X136927260Y-78564866D01*
X136985134Y-78622740D01*
X137053187Y-78668211D01*
X137128803Y-78699532D01*
X137209077Y-78715500D01*
X137290923Y-78715500D01*
X137371197Y-78699532D01*
X137446813Y-78668211D01*
X137514866Y-78622740D01*
X137572740Y-78564866D01*
X137618211Y-78496813D01*
X137649532Y-78421197D01*
X137665500Y-78340923D01*
X137665500Y-78259077D01*
X137649532Y-78178803D01*
X137618211Y-78103187D01*
X137572740Y-78035134D01*
X137514866Y-77977260D01*
X137446813Y-77931789D01*
X137371197Y-77900468D01*
X137290923Y-77884500D01*
X137209077Y-77884500D01*
X137128803Y-77900468D01*
X137053187Y-77931789D01*
X136985134Y-77977260D01*
X136927260Y-78035134D01*
X136881789Y-78103187D01*
X136850468Y-78178803D01*
X136834500Y-78259077D01*
X125215500Y-78259077D01*
X125215500Y-77359077D01*
X142634500Y-77359077D01*
X142634500Y-77440923D01*
X142650468Y-77521197D01*
X142681789Y-77596813D01*
X142727260Y-77664866D01*
X142785134Y-77722740D01*
X142853187Y-77768211D01*
X142928803Y-77799532D01*
X143009077Y-77815500D01*
X143090923Y-77815500D01*
X143171197Y-77799532D01*
X143246813Y-77768211D01*
X143314866Y-77722740D01*
X143372740Y-77664866D01*
X143418211Y-77596813D01*
X143449532Y-77521197D01*
X143465500Y-77440923D01*
X143465500Y-77359077D01*
X143449532Y-77278803D01*
X143418211Y-77203187D01*
X143372740Y-77135134D01*
X143314866Y-77077260D01*
X143246813Y-77031789D01*
X143171197Y-77000468D01*
X143090923Y-76984500D01*
X143009077Y-76984500D01*
X142928803Y-77000468D01*
X142853187Y-77031789D01*
X142785134Y-77077260D01*
X142727260Y-77135134D01*
X142681789Y-77203187D01*
X142650468Y-77278803D01*
X142634500Y-77359077D01*
X125215500Y-77359077D01*
X125215500Y-76006615D01*
X134559500Y-76006615D01*
X134559500Y-76093385D01*
X134576429Y-76178489D01*
X134609634Y-76258655D01*
X134657842Y-76330802D01*
X134719198Y-76392158D01*
X134791345Y-76440366D01*
X134871511Y-76473571D01*
X134956615Y-76490500D01*
X135043385Y-76490500D01*
X135128489Y-76473571D01*
X135208655Y-76440366D01*
X135280802Y-76392158D01*
X135342158Y-76330802D01*
X135390366Y-76258655D01*
X135423571Y-76178489D01*
X135440500Y-76093385D01*
X135440500Y-76006615D01*
X138609500Y-76006615D01*
X138609500Y-76093385D01*
X138626429Y-76178489D01*
X138659634Y-76258655D01*
X138707842Y-76330802D01*
X138769198Y-76392158D01*
X138841345Y-76440366D01*
X138921511Y-76473571D01*
X139006615Y-76490500D01*
X139093385Y-76490500D01*
X139178489Y-76473571D01*
X139258655Y-76440366D01*
X139330802Y-76392158D01*
X139392158Y-76330802D01*
X139440366Y-76258655D01*
X139473571Y-76178489D01*
X139490500Y-76093385D01*
X139490500Y-76006615D01*
X142559500Y-76006615D01*
X142559500Y-76093385D01*
X142576429Y-76178489D01*
X142609634Y-76258655D01*
X142657842Y-76330802D01*
X142719198Y-76392158D01*
X142791345Y-76440366D01*
X142871511Y-76473571D01*
X142956615Y-76490500D01*
X143043385Y-76490500D01*
X143128489Y-76473571D01*
X143208655Y-76440366D01*
X143280802Y-76392158D01*
X143342158Y-76330802D01*
X143390366Y-76258655D01*
X143423571Y-76178489D01*
X143440500Y-76093385D01*
X143440500Y-76006615D01*
X143423571Y-75921511D01*
X143390366Y-75841345D01*
X143342158Y-75769198D01*
X143280802Y-75707842D01*
X143208655Y-75659634D01*
X143128489Y-75626429D01*
X143043385Y-75609500D01*
X142956615Y-75609500D01*
X142871511Y-75626429D01*
X142791345Y-75659634D01*
X142719198Y-75707842D01*
X142657842Y-75769198D01*
X142609634Y-75841345D01*
X142576429Y-75921511D01*
X142559500Y-76006615D01*
X139490500Y-76006615D01*
X139473571Y-75921511D01*
X139440366Y-75841345D01*
X139392158Y-75769198D01*
X139330802Y-75707842D01*
X139258655Y-75659634D01*
X139178489Y-75626429D01*
X139093385Y-75609500D01*
X139006615Y-75609500D01*
X138921511Y-75626429D01*
X138841345Y-75659634D01*
X138769198Y-75707842D01*
X138707842Y-75769198D01*
X138659634Y-75841345D01*
X138626429Y-75921511D01*
X138609500Y-76006615D01*
X135440500Y-76006615D01*
X135423571Y-75921511D01*
X135390366Y-75841345D01*
X135342158Y-75769198D01*
X135280802Y-75707842D01*
X135208655Y-75659634D01*
X135128489Y-75626429D01*
X135043385Y-75609500D01*
X134956615Y-75609500D01*
X134871511Y-75626429D01*
X134791345Y-75659634D01*
X134719198Y-75707842D01*
X134657842Y-75769198D01*
X134609634Y-75841345D01*
X134576429Y-75921511D01*
X134559500Y-76006615D01*
X125215500Y-76006615D01*
X125215500Y-74265500D01*
X154784501Y-74265500D01*
X154784500Y-121484500D01*
G37*
X154784500Y-121484500D02*
X153589421Y-121484500D01*
X153579870Y-121485441D01*
X153574882Y-121485406D01*
X153571888Y-121485700D01*
X153416611Y-121502021D01*
X153397476Y-121505949D01*
X153378294Y-121509608D01*
X153375413Y-121510477D01*
X153226264Y-121556646D01*
X153208249Y-121564219D01*
X153190147Y-121571532D01*
X153187495Y-121572942D01*
X153187491Y-121572944D01*
X153187490Y-121572945D01*
X153050148Y-121647206D01*
X153033930Y-121658145D01*
X153017613Y-121668823D01*
X153015281Y-121670724D01*
X152894978Y-121770247D01*
X152881205Y-121784116D01*
X152867260Y-121797773D01*
X152865342Y-121800091D01*
X152766662Y-121921085D01*
X152755847Y-121937363D01*
X152744819Y-121953469D01*
X152743392Y-121956108D01*
X152743387Y-121956116D01*
X152743384Y-121956124D01*
X152670088Y-122093973D01*
X152662649Y-122112021D01*
X152654950Y-122129983D01*
X152654064Y-122132848D01*
X152654060Y-122132858D01*
X152654058Y-122132868D01*
X152608934Y-122282327D01*
X152605145Y-122301461D01*
X152601079Y-122320591D01*
X152600766Y-122323575D01*
X152600764Y-122323585D01*
X152600764Y-122323594D01*
X152585529Y-122478971D01*
X152585529Y-122478984D01*
X152584501Y-122489421D01*
X152584500Y-124784500D01*
X137115500Y-124784500D01*
X137115500Y-121739421D01*
X137115427Y-121738675D01*
X137115422Y-121738026D01*
X137114476Y-121729022D01*
X137114399Y-121728243D01*
X137114399Y-121718499D01*
X137114084Y-121715507D01*
X137097768Y-121570045D01*
X137093713Y-121550965D01*
X137089914Y-121531780D01*
X137089024Y-121528906D01*
X137044765Y-121389383D01*
X137037059Y-121371404D01*
X137029627Y-121353373D01*
X137028196Y-121350726D01*
X136957679Y-121222456D01*
X136946640Y-121206334D01*
X136935837Y-121190074D01*
X136933919Y-121187756D01*
X136933917Y-121187753D01*
X136933914Y-121187750D01*
X136857570Y-121096765D01*
X140059500Y-121096765D01*
X140059500Y-121203235D01*
X140080271Y-121307658D01*
X140121015Y-121406023D01*
X140180166Y-121494549D01*
X140255451Y-121569834D01*
X140343977Y-121628985D01*
X140442342Y-121669729D01*
X140546765Y-121690500D01*
X140653235Y-121690500D01*
X140757658Y-121669729D01*
X140856023Y-121628985D01*
X140944549Y-121569834D01*
X141019834Y-121494549D01*
X141078985Y-121406023D01*
X141119729Y-121307658D01*
X141140500Y-121203235D01*
X141140500Y-121096765D01*
X146459500Y-121096765D01*
X146459500Y-121203235D01*
X146480271Y-121307658D01*
X146521015Y-121406023D01*
X146580166Y-121494549D01*
X146655451Y-121569834D01*
X146743977Y-121628985D01*
X146842342Y-121669729D01*
X146946765Y-121690500D01*
X147053235Y-121690500D01*
X147157658Y-121669729D01*
X147256023Y-121628985D01*
X147344549Y-121569834D01*
X147419834Y-121494549D01*
X147478985Y-121406023D01*
X147519729Y-121307658D01*
X147540500Y-121203235D01*
X147540500Y-121096765D01*
X151259500Y-121096765D01*
X151259500Y-121203235D01*
X151280271Y-121307658D01*
X151321015Y-121406023D01*
X151380166Y-121494549D01*
X151455451Y-121569834D01*
X151543977Y-121628985D01*
X151642342Y-121669729D01*
X151746765Y-121690500D01*
X151853235Y-121690500D01*
X151957658Y-121669729D01*
X152056023Y-121628985D01*
X152144549Y-121569834D01*
X152219834Y-121494549D01*
X152278985Y-121406023D01*
X152319729Y-121307658D01*
X152340500Y-121203235D01*
X152340500Y-121096765D01*
X152319729Y-120992342D01*
X152278985Y-120893977D01*
X152219834Y-120805451D01*
X152144549Y-120730166D01*
X152056023Y-120671015D01*
X151957658Y-120630271D01*
X151853235Y-120609500D01*
X151746765Y-120609500D01*
X151642342Y-120630271D01*
X151543977Y-120671015D01*
X151455451Y-120730166D01*
X151380166Y-120805451D01*
X151321015Y-120893977D01*
X151280271Y-120992342D01*
X151259500Y-121096765D01*
X147540500Y-121096765D01*
X147519729Y-120992342D01*
X147478985Y-120893977D01*
X147419834Y-120805451D01*
X147344549Y-120730166D01*
X147256023Y-120671015D01*
X147157658Y-120630271D01*
X147053235Y-120609500D01*
X146946765Y-120609500D01*
X146842342Y-120630271D01*
X146743977Y-120671015D01*
X146655451Y-120730166D01*
X146580166Y-120805451D01*
X146521015Y-120893977D01*
X146480271Y-120992342D01*
X146459500Y-121096765D01*
X141140500Y-121096765D01*
X141119729Y-120992342D01*
X141078985Y-120893977D01*
X141019834Y-120805451D01*
X140944549Y-120730166D01*
X140856023Y-120671015D01*
X140757658Y-120630271D01*
X140653235Y-120609500D01*
X140546765Y-120609500D01*
X140442342Y-120630271D01*
X140343977Y-120671015D01*
X140255451Y-120730166D01*
X140180166Y-120805451D01*
X140121015Y-120893977D01*
X140080271Y-120992342D01*
X140059500Y-121096765D01*
X136857570Y-121096765D01*
X136839831Y-121075625D01*
X136825866Y-121061949D01*
X136812112Y-121048099D01*
X136809786Y-121046202D01*
X136809782Y-121046198D01*
X136809778Y-121046195D01*
X136695704Y-120954479D01*
X136679371Y-120943791D01*
X136663170Y-120932863D01*
X136660513Y-120931450D01*
X136530796Y-120863635D01*
X136512683Y-120856317D01*
X136494679Y-120848749D01*
X136491803Y-120847881D01*
X136491797Y-120847879D01*
X136351380Y-120806553D01*
X136332197Y-120802894D01*
X136313063Y-120798966D01*
X136310068Y-120798672D01*
X136164296Y-120785405D01*
X136144764Y-120785541D01*
X136125232Y-120785405D01*
X136122248Y-120785698D01*
X136122239Y-120785698D01*
X136122231Y-120785700D01*
X135976665Y-120801000D01*
X135957530Y-120804928D01*
X135938348Y-120808587D01*
X135935467Y-120809456D01*
X135795638Y-120852740D01*
X135777625Y-120860312D01*
X135759523Y-120867626D01*
X135756866Y-120869039D01*
X135628108Y-120938658D01*
X135611926Y-120949573D01*
X135595572Y-120960274D01*
X135593246Y-120962172D01*
X135593240Y-120962176D01*
X135593235Y-120962181D01*
X135480457Y-121055478D01*
X135466687Y-121069344D01*
X135452739Y-121083003D01*
X135450821Y-121085322D01*
X135358309Y-121198754D01*
X135347508Y-121215011D01*
X135336465Y-121231137D01*
X135335034Y-121233784D01*
X135266315Y-121363025D01*
X135258871Y-121381085D01*
X135251177Y-121399037D01*
X135250288Y-121401908D01*
X135250288Y-121401910D01*
X135250287Y-121401912D01*
X135207981Y-121542039D01*
X135204190Y-121561187D01*
X135200127Y-121580301D01*
X135199814Y-121583288D01*
X135199812Y-121583296D01*
X135199812Y-121583304D01*
X135185529Y-121728970D01*
X135185529Y-121728984D01*
X135184501Y-121739421D01*
X135184500Y-124784500D01*
X127415500Y-124784500D01*
X127415500Y-122489421D01*
X127414559Y-122479870D01*
X127414594Y-122474882D01*
X127414300Y-122471888D01*
X127397979Y-122316611D01*
X127394051Y-122297476D01*
X127390392Y-122278294D01*
X127389523Y-122275413D01*
X127343354Y-122126264D01*
X127335781Y-122108249D01*
X127328468Y-122090147D01*
X127327055Y-122087490D01*
X127252794Y-121950148D01*
X127241855Y-121933930D01*
X127231177Y-121917613D01*
X127229276Y-121915281D01*
X127129753Y-121794978D01*
X127115884Y-121781205D01*
X127102227Y-121767260D01*
X127099909Y-121765342D01*
X126978915Y-121666662D01*
X126962637Y-121655847D01*
X126946531Y-121644819D01*
X126943892Y-121643392D01*
X126943884Y-121643387D01*
X126943876Y-121643384D01*
X126806027Y-121570088D01*
X126787979Y-121562649D01*
X126770017Y-121554950D01*
X126767152Y-121554064D01*
X126767142Y-121554060D01*
X126767132Y-121554058D01*
X126617673Y-121508934D01*
X126598539Y-121505145D01*
X126579409Y-121501079D01*
X126576425Y-121500766D01*
X126576415Y-121500764D01*
X126576406Y-121500764D01*
X126421029Y-121485529D01*
X126421026Y-121485529D01*
X126410579Y-121484500D01*
X125215500Y-121484500D01*
X125215500Y-121096765D01*
X128059500Y-121096765D01*
X128059500Y-121203235D01*
X128080271Y-121307658D01*
X128121015Y-121406023D01*
X128180166Y-121494549D01*
X128255451Y-121569834D01*
X128343977Y-121628985D01*
X128442342Y-121669729D01*
X128546765Y-121690500D01*
X128653235Y-121690500D01*
X128757658Y-121669729D01*
X128856023Y-121628985D01*
X128944549Y-121569834D01*
X129019834Y-121494549D01*
X129078985Y-121406023D01*
X129119729Y-121307658D01*
X129140500Y-121203235D01*
X129140500Y-121096765D01*
X129119729Y-120992342D01*
X129078985Y-120893977D01*
X129019834Y-120805451D01*
X128944549Y-120730166D01*
X128856023Y-120671015D01*
X128757658Y-120630271D01*
X128653235Y-120609500D01*
X128546765Y-120609500D01*
X128442342Y-120630271D01*
X128343977Y-120671015D01*
X128255451Y-120730166D01*
X128180166Y-120805451D01*
X128121015Y-120893977D01*
X128080271Y-120992342D01*
X128059500Y-121096765D01*
X125215500Y-121096765D01*
X125215500Y-110096765D01*
X132059500Y-110096765D01*
X132059500Y-110203235D01*
X132080271Y-110307658D01*
X132121015Y-110406023D01*
X132180166Y-110494549D01*
X132255451Y-110569834D01*
X132343977Y-110628985D01*
X132442342Y-110669729D01*
X132546765Y-110690500D01*
X132653235Y-110690500D01*
X132757658Y-110669729D01*
X132856023Y-110628985D01*
X132944549Y-110569834D01*
X133019834Y-110494549D01*
X133078985Y-110406023D01*
X133119729Y-110307658D01*
X133140500Y-110203235D01*
X133140500Y-110096765D01*
X133119729Y-109992342D01*
X133078985Y-109893977D01*
X133019834Y-109805451D01*
X132944549Y-109730166D01*
X132856023Y-109671015D01*
X132757658Y-109630271D01*
X132653235Y-109609500D01*
X132546765Y-109609500D01*
X132442342Y-109630271D01*
X132343977Y-109671015D01*
X132255451Y-109730166D01*
X132180166Y-109805451D01*
X132121015Y-109893977D01*
X132080271Y-109992342D01*
X132059500Y-110096765D01*
X125215500Y-110096765D01*
X125215500Y-107076690D01*
X150809500Y-107076690D01*
X150809500Y-107173310D01*
X150828350Y-107268073D01*
X150865325Y-107357339D01*
X150919004Y-107437675D01*
X150987325Y-107505996D01*
X151067661Y-107559675D01*
X151156927Y-107596650D01*
X151251690Y-107615500D01*
X151348310Y-107615500D01*
X151443073Y-107596650D01*
X151532339Y-107559675D01*
X151612675Y-107505996D01*
X151680996Y-107437675D01*
X151734675Y-107357339D01*
X151771650Y-107268073D01*
X151790500Y-107173310D01*
X151790500Y-107076690D01*
X151771650Y-106981927D01*
X151734675Y-106892661D01*
X151680996Y-106812325D01*
X151612675Y-106744004D01*
X151532339Y-106690325D01*
X151443073Y-106653350D01*
X151348310Y-106634500D01*
X151251690Y-106634500D01*
X151156927Y-106653350D01*
X151067661Y-106690325D01*
X150987325Y-106744004D01*
X150919004Y-106812325D01*
X150865325Y-106892661D01*
X150828350Y-106981927D01*
X150809500Y-107076690D01*
X125215500Y-107076690D01*
X125215500Y-105371765D01*
X135409500Y-105371765D01*
X135409500Y-105478235D01*
X135430271Y-105582658D01*
X135471015Y-105681023D01*
X135530166Y-105769549D01*
X135605451Y-105844834D01*
X135693977Y-105903985D01*
X135792342Y-105944729D01*
X135896765Y-105965500D01*
X136003235Y-105965500D01*
X136107658Y-105944729D01*
X136206023Y-105903985D01*
X136294549Y-105844834D01*
X136369834Y-105769549D01*
X136428985Y-105681023D01*
X136469729Y-105582658D01*
X136490500Y-105478235D01*
X136490500Y-105371765D01*
X136469729Y-105267342D01*
X136428985Y-105168977D01*
X136369834Y-105080451D01*
X136294549Y-105005166D01*
X136225572Y-104959077D01*
X139384500Y-104959077D01*
X139384500Y-105040923D01*
X139400468Y-105121197D01*
X139431789Y-105196813D01*
X139477260Y-105264866D01*
X139535134Y-105322740D01*
X139603187Y-105368211D01*
X139678803Y-105399532D01*
X139759077Y-105415500D01*
X139840923Y-105415500D01*
X139921197Y-105399532D01*
X139996813Y-105368211D01*
X140064866Y-105322740D01*
X140122740Y-105264866D01*
X140168211Y-105196813D01*
X140199532Y-105121197D01*
X140215500Y-105040923D01*
X140215500Y-104959077D01*
X140199532Y-104878803D01*
X140168211Y-104803187D01*
X140122740Y-104735134D01*
X140064866Y-104677260D01*
X139996813Y-104631789D01*
X139921197Y-104600468D01*
X139840923Y-104584500D01*
X139759077Y-104584500D01*
X139678803Y-104600468D01*
X139603187Y-104631789D01*
X139535134Y-104677260D01*
X139477260Y-104735134D01*
X139431789Y-104803187D01*
X139400468Y-104878803D01*
X139384500Y-104959077D01*
X136225572Y-104959077D01*
X136206023Y-104946015D01*
X136107658Y-104905271D01*
X136003235Y-104884500D01*
X135896765Y-104884500D01*
X135792342Y-104905271D01*
X135693977Y-104946015D01*
X135605451Y-105005166D01*
X135530166Y-105080451D01*
X135471015Y-105168977D01*
X135430271Y-105267342D01*
X135409500Y-105371765D01*
X125215500Y-105371765D01*
X125215500Y-97846765D01*
X135659500Y-97846765D01*
X135659500Y-97953235D01*
X135680271Y-98057658D01*
X135721015Y-98156023D01*
X135780166Y-98244549D01*
X135855451Y-98319834D01*
X135943977Y-98378985D01*
X136042342Y-98419729D01*
X136146765Y-98440500D01*
X136253235Y-98440500D01*
X136357658Y-98419729D01*
X136456023Y-98378985D01*
X136544549Y-98319834D01*
X136619834Y-98244549D01*
X136678985Y-98156023D01*
X136719729Y-98057658D01*
X136740500Y-97953235D01*
X136740500Y-97846765D01*
X136719729Y-97742342D01*
X136678985Y-97643977D01*
X136619834Y-97555451D01*
X136544549Y-97480166D01*
X136456023Y-97421015D01*
X136357658Y-97380271D01*
X136253235Y-97359500D01*
X136146765Y-97359500D01*
X136042342Y-97380271D01*
X135943977Y-97421015D01*
X135855451Y-97480166D01*
X135780166Y-97555451D01*
X135721015Y-97643977D01*
X135680271Y-97742342D01*
X135659500Y-97846765D01*
X125215500Y-97846765D01*
X125215500Y-85634077D01*
X152634500Y-85634077D01*
X152634500Y-85715923D01*
X152650468Y-85796197D01*
X152681789Y-85871813D01*
X152727260Y-85939866D01*
X152785134Y-85997740D01*
X152853187Y-86043211D01*
X152928803Y-86074532D01*
X153009077Y-86090500D01*
X153090923Y-86090500D01*
X153171197Y-86074532D01*
X153246813Y-86043211D01*
X153314866Y-85997740D01*
X153372740Y-85939866D01*
X153418211Y-85871813D01*
X153449532Y-85796197D01*
X153465500Y-85715923D01*
X153465500Y-85634077D01*
X153449532Y-85553803D01*
X153418211Y-85478187D01*
X153372740Y-85410134D01*
X153314866Y-85352260D01*
X153246813Y-85306789D01*
X153171197Y-85275468D01*
X153090923Y-85259500D01*
X153009077Y-85259500D01*
X152928803Y-85275468D01*
X152853187Y-85306789D01*
X152785134Y-85352260D01*
X152727260Y-85410134D01*
X152681789Y-85478187D01*
X152650468Y-85553803D01*
X152634500Y-85634077D01*
X125215500Y-85634077D01*
X125215500Y-85009077D01*
X126834500Y-85009077D01*
X126834500Y-85090923D01*
X126850468Y-85171197D01*
X126881789Y-85246813D01*
X126927260Y-85314866D01*
X126985134Y-85372740D01*
X127053187Y-85418211D01*
X127128803Y-85449532D01*
X127209077Y-85465500D01*
X127290923Y-85465500D01*
X127371197Y-85449532D01*
X127446813Y-85418211D01*
X127514866Y-85372740D01*
X127572740Y-85314866D01*
X127618211Y-85246813D01*
X127649532Y-85171197D01*
X127665500Y-85090923D01*
X127665500Y-85009077D01*
X127649532Y-84928803D01*
X127618211Y-84853187D01*
X127572740Y-84785134D01*
X127514866Y-84727260D01*
X127446813Y-84681789D01*
X127371197Y-84650468D01*
X127290923Y-84634500D01*
X127209077Y-84634500D01*
X127128803Y-84650468D01*
X127053187Y-84681789D01*
X126985134Y-84727260D01*
X126927260Y-84785134D01*
X126881789Y-84853187D01*
X126850468Y-84928803D01*
X126834500Y-85009077D01*
X125215500Y-85009077D01*
X125215500Y-83851690D01*
X134609500Y-83851690D01*
X134609500Y-83948310D01*
X134628350Y-84043073D01*
X134665325Y-84132339D01*
X134719004Y-84212675D01*
X134787325Y-84280996D01*
X134867661Y-84334675D01*
X134956927Y-84371650D01*
X135051690Y-84390500D01*
X135148310Y-84390500D01*
X135243073Y-84371650D01*
X135332339Y-84334675D01*
X135412675Y-84280996D01*
X135480996Y-84212675D01*
X135534675Y-84132339D01*
X135571650Y-84043073D01*
X135590500Y-83948310D01*
X135590500Y-83851690D01*
X135571650Y-83756927D01*
X135534675Y-83667661D01*
X135480996Y-83587325D01*
X135412675Y-83519004D01*
X135332339Y-83465325D01*
X135243073Y-83428350D01*
X135148310Y-83409500D01*
X135051690Y-83409500D01*
X134956927Y-83428350D01*
X134867661Y-83465325D01*
X134787325Y-83519004D01*
X134719004Y-83587325D01*
X134665325Y-83667661D01*
X134628350Y-83756927D01*
X134609500Y-83851690D01*
X125215500Y-83851690D01*
X125215500Y-79754418D01*
X137757500Y-79754418D01*
X137757500Y-79841582D01*
X137774505Y-79927072D01*
X137807862Y-80007602D01*
X137856288Y-80080077D01*
X137876211Y-80100000D01*
X137856288Y-80119923D01*
X137807862Y-80192398D01*
X137774505Y-80272928D01*
X137757500Y-80358418D01*
X137757500Y-80445582D01*
X137774505Y-80531072D01*
X137807862Y-80611602D01*
X137856288Y-80684077D01*
X137917923Y-80745712D01*
X137990398Y-80794138D01*
X138070928Y-80827495D01*
X138156418Y-80844500D01*
X138243582Y-80844500D01*
X138329072Y-80827495D01*
X138409602Y-80794138D01*
X138482077Y-80745712D01*
X138543712Y-80684077D01*
X138592138Y-80611602D01*
X138625495Y-80531072D01*
X138642500Y-80445582D01*
X138642500Y-80358418D01*
X138625495Y-80272928D01*
X138592138Y-80192398D01*
X138543712Y-80119923D01*
X138523789Y-80100000D01*
X138543712Y-80080077D01*
X138592138Y-80007602D01*
X138625495Y-79927072D01*
X138642500Y-79841582D01*
X138642500Y-79754418D01*
X138625495Y-79668928D01*
X138592138Y-79588398D01*
X138543712Y-79515923D01*
X138482077Y-79454288D01*
X138409602Y-79405862D01*
X138329072Y-79372505D01*
X138243582Y-79355500D01*
X138156418Y-79355500D01*
X138070928Y-79372505D01*
X137990398Y-79405862D01*
X137917923Y-79454288D01*
X137856288Y-79515923D01*
X137807862Y-79588398D01*
X137774505Y-79668928D01*
X137757500Y-79754418D01*
X125215500Y-79754418D01*
X125215500Y-78259077D01*
X136834500Y-78259077D01*
X136834500Y-78340923D01*
X136850468Y-78421197D01*
X136881789Y-78496813D01*
X136927260Y-78564866D01*
X136985134Y-78622740D01*
X137053187Y-78668211D01*
X137128803Y-78699532D01*
X137209077Y-78715500D01*
X137290923Y-78715500D01*
X137371197Y-78699532D01*
X137446813Y-78668211D01*
X137514866Y-78622740D01*
X137572740Y-78564866D01*
X137618211Y-78496813D01*
X137649532Y-78421197D01*
X137665500Y-78340923D01*
X137665500Y-78259077D01*
X137649532Y-78178803D01*
X137618211Y-78103187D01*
X137572740Y-78035134D01*
X137514866Y-77977260D01*
X137446813Y-77931789D01*
X137371197Y-77900468D01*
X137290923Y-77884500D01*
X137209077Y-77884500D01*
X137128803Y-77900468D01*
X137053187Y-77931789D01*
X136985134Y-77977260D01*
X136927260Y-78035134D01*
X136881789Y-78103187D01*
X136850468Y-78178803D01*
X136834500Y-78259077D01*
X125215500Y-78259077D01*
X125215500Y-77359077D01*
X142634500Y-77359077D01*
X142634500Y-77440923D01*
X142650468Y-77521197D01*
X142681789Y-77596813D01*
X142727260Y-77664866D01*
X142785134Y-77722740D01*
X142853187Y-77768211D01*
X142928803Y-77799532D01*
X143009077Y-77815500D01*
X143090923Y-77815500D01*
X143171197Y-77799532D01*
X143246813Y-77768211D01*
X143314866Y-77722740D01*
X143372740Y-77664866D01*
X143418211Y-77596813D01*
X143449532Y-77521197D01*
X143465500Y-77440923D01*
X143465500Y-77359077D01*
X143449532Y-77278803D01*
X143418211Y-77203187D01*
X143372740Y-77135134D01*
X143314866Y-77077260D01*
X143246813Y-77031789D01*
X143171197Y-77000468D01*
X143090923Y-76984500D01*
X143009077Y-76984500D01*
X142928803Y-77000468D01*
X142853187Y-77031789D01*
X142785134Y-77077260D01*
X142727260Y-77135134D01*
X142681789Y-77203187D01*
X142650468Y-77278803D01*
X142634500Y-77359077D01*
X125215500Y-77359077D01*
X125215500Y-76006615D01*
X134559500Y-76006615D01*
X134559500Y-76093385D01*
X134576429Y-76178489D01*
X134609634Y-76258655D01*
X134657842Y-76330802D01*
X134719198Y-76392158D01*
X134791345Y-76440366D01*
X134871511Y-76473571D01*
X134956615Y-76490500D01*
X135043385Y-76490500D01*
X135128489Y-76473571D01*
X135208655Y-76440366D01*
X135280802Y-76392158D01*
X135342158Y-76330802D01*
X135390366Y-76258655D01*
X135423571Y-76178489D01*
X135440500Y-76093385D01*
X135440500Y-76006615D01*
X138609500Y-76006615D01*
X138609500Y-76093385D01*
X138626429Y-76178489D01*
X138659634Y-76258655D01*
X138707842Y-76330802D01*
X138769198Y-76392158D01*
X138841345Y-76440366D01*
X138921511Y-76473571D01*
X139006615Y-76490500D01*
X139093385Y-76490500D01*
X139178489Y-76473571D01*
X139258655Y-76440366D01*
X139330802Y-76392158D01*
X139392158Y-76330802D01*
X139440366Y-76258655D01*
X139473571Y-76178489D01*
X139490500Y-76093385D01*
X139490500Y-76006615D01*
X142559500Y-76006615D01*
X142559500Y-76093385D01*
X142576429Y-76178489D01*
X142609634Y-76258655D01*
X142657842Y-76330802D01*
X142719198Y-76392158D01*
X142791345Y-76440366D01*
X142871511Y-76473571D01*
X142956615Y-76490500D01*
X143043385Y-76490500D01*
X143128489Y-76473571D01*
X143208655Y-76440366D01*
X143280802Y-76392158D01*
X143342158Y-76330802D01*
X143390366Y-76258655D01*
X143423571Y-76178489D01*
X143440500Y-76093385D01*
X143440500Y-76006615D01*
X143423571Y-75921511D01*
X143390366Y-75841345D01*
X143342158Y-75769198D01*
X143280802Y-75707842D01*
X143208655Y-75659634D01*
X143128489Y-75626429D01*
X143043385Y-75609500D01*
X142956615Y-75609500D01*
X142871511Y-75626429D01*
X142791345Y-75659634D01*
X142719198Y-75707842D01*
X142657842Y-75769198D01*
X142609634Y-75841345D01*
X142576429Y-75921511D01*
X142559500Y-76006615D01*
X139490500Y-76006615D01*
X139473571Y-75921511D01*
X139440366Y-75841345D01*
X139392158Y-75769198D01*
X139330802Y-75707842D01*
X139258655Y-75659634D01*
X139178489Y-75626429D01*
X139093385Y-75609500D01*
X139006615Y-75609500D01*
X138921511Y-75626429D01*
X138841345Y-75659634D01*
X138769198Y-75707842D01*
X138707842Y-75769198D01*
X138659634Y-75841345D01*
X138626429Y-75921511D01*
X138609500Y-76006615D01*
X135440500Y-76006615D01*
X135423571Y-75921511D01*
X135390366Y-75841345D01*
X135342158Y-75769198D01*
X135280802Y-75707842D01*
X135208655Y-75659634D01*
X135128489Y-75626429D01*
X135043385Y-75609500D01*
X134956615Y-75609500D01*
X134871511Y-75626429D01*
X134791345Y-75659634D01*
X134719198Y-75707842D01*
X134657842Y-75769198D01*
X134609634Y-75841345D01*
X134576429Y-75921511D01*
X134559500Y-76006615D01*
X125215500Y-76006615D01*
X125215500Y-74265500D01*
X154784501Y-74265500D01*
X154784500Y-121484500D01*
G04 #@! TD*
M02*
